<?xml version="1.0" encoding="utf-8"?>
<!-- Generator: Adobe Illustrator 24.1.0, SVG Export Plug-In . SVG Version: 6.00 Build 0)  -->
<svg version="1.1" id="Layer_1" xmlns="http://www.w3.org/2000/svg" xmlns:xlink="http://www.w3.org/1999/xlink" x="0px" y="0px"
	 viewBox="0 0 48 48" style="enable-background:new 0 0 48 48;" xml:space="preserve">
<style type="text/css">
	.st0{fill:#BDD531;}
	.st1{fill:#404097;}
	.st2{fill:#DC4C9A;}
	.st3{fill:#DCE356;}
	.st4{fill:#F06EA9;}
	.st5{fill:#AF4799;}
	.st6{fill:#29ACD6;}
	.st7{fill:#52CAF5;}
	.st8{fill:#328CC4;}
	.st9{fill:none;}
	.st10{fill:#645FAA;}
</style>
<g>
	<polyline class="st0" points="0.13,41.32 15.63,36.89 13.09,31.46 0.13,41.32 	"/>
	<polyline class="st1" points="1.84,7.3 9.91,24.63 14.54,16.75 1.84,7.3 	"/>
	<polyline class="st2" points="39.74,29.99 31.57,17.41 23.59,23.47 34.42,31.52 46.64,40.61 39.74,29.99 	"/>
	<path class="st0" d="M44.83,18.3c0.3,0.8,0.6,1.6,0.92,2.4c0.01,0.02,0.02,0.04,0.03,0.07l0.06-0.43
		c-0.28-0.71-0.56-1.41-0.83-2.11C44.94,18.25,44.89,18.28,44.83,18.3"/>
	<path class="st0" d="M43.26,22.55c0.01-0.07,0.02-0.14,0.03-0.22c0.1,0.01,0.2,0,0.31,0c0.22,0,0.44-0.01,0.64,0.06
		c0.45,0.15,0.89,0.22,1.31,0.2l0.15-1.15c-0.48-1.19-0.95-2.38-1.42-3.57c-0.23-0.59-0.46-1.18-0.7-1.77
		c-0.05-0.12-0.12-0.27-0.22-0.31c-0.14-0.05-0.32-0.01-0.48-0.01c0.02,0.15,0,0.31,0.06,0.44c0.05,0.1,0.18,0.17,0.33,0.3
		c-0.4,0.13-0.26,0.85-0.78,0.71c0-0.39,0.04-0.71-0.01-1.02c-0.05-0.4,0.07-0.68,0.42-0.85c0.25-0.12,0.9,0.15,0.99,0.4
		c0.15,0.39,0.26,0.8,0.42,1.2c0.07,0.19,0.16,0.44,0.31,0.52c0.16,0.08,0.41-0.01,0.61-0.02c-0.02-0.2,0.05-0.52-0.06-0.59
		c-0.43-0.29-0.4-0.67-0.32-1.08c0.12-0.65,0.26-1.3,0.49-1.97c0.1,0.21,0.16,0.45,0.3,0.61c0.16,0.18,0.4,0.4,0.59,0.4
		c0.12,0,0.23-0.1,0.35-0.22l1.24-9.57L31.57,17.41l8.18,12.58l5.02-1.43l0.08-0.61c-0.26-0.2-0.5-0.42-0.72-0.67
		c-0.93-1.04-0.98-2.4-1.19-3.71c-0.12,0.02-0.18,0.03-0.24,0.03c-0.02,0-0.05,0-0.07,0c-0.09,0-0.17,0-0.23-0.04
		c-0.04-0.03-0.04-0.22,0-0.26c0.09-0.07,0.28-0.15,0.33-0.11c0.2,0.17,0.45,0.37,0.52,0.6c0.14,0.47,0.19,0.97,0.28,1.52
		c0.07-0.14,0.12-0.3,0.21-0.42c0.09-0.12,0.21-0.23,0.34-0.32c0.03-0.02,0.19,0.08,0.19,0.09c-0.04,0.15-0.09,0.29-0.15,0.43
		c-0.07,0.14-0.25,0.28-0.24,0.41c0.01,0.22,0.1,0.46,0.24,0.62c0.04,0.05,0.34-0.09,0.52-0.17c0.15-0.06,0.28-0.15,0.43-0.22
		c-0.01,0.19,0.03,0.43-0.05,0.57c-0.26,0.43-0.31,0.63-0.03,0.85l0.51-3.91C44.67,23.26,43.92,23.05,43.26,22.55 M43.49,18.5
		c-0.08-0.14-0.15-0.26-0.24-0.4c0.06-0.05,0.15-0.14,0.18-0.12c0.12,0.07,0.3,0.16,0.32,0.27c0.09,0.42-0.45,0.79-1.05,0.63
		C43,18.73,43.23,18.63,43.49,18.5 M44.11,11.1c0.84,0.37,1.18,1.04,1.02,1.98c-0.13,0.82-0.31,1.63-0.46,2.44
		c-0.07,0.41-0.1,0.83-0.17,1.24c-0.23-1.55,0.55-3.13-0.03-4.68c-0.04,0.01-0.08,0.02-0.12,0.02c0.04,0.4,0.1,0.79,0.11,1.19
		c0,0.11-0.11,0.22-0.17,0.33c-0.04-0.1-0.09-0.2-0.12-0.31c-0.02-0.08,0.01-0.19-0.04-0.23C43.36,12.41,44.28,11.81,44.11,11.1
		 M42.37,13.28c0.18-0.02,0.42-0.06,0.55,0.03c0.24,0.17,0.47,0.4,0.62,0.65c0.28,0.48,0.49,0.99,0.73,1.49
		c0,0.04-0.01,0.08-0.01,0.12c-0.16-0.12-0.37-0.2-0.46-0.36c-0.18-0.3-0.31-0.63-0.43-0.97c-0.2-0.58-0.34-0.68-0.91-0.6
		c-0.06,0.01-0.19-0.07-0.19-0.09C42.28,13.46,42.32,13.29,42.37,13.28 M41.6,17.48c0.03-0.04,0.22-0.01,0.3,0.04
		c0.96,0.58,0.85,1.81-0.07,2.29c0.03-0.33-0.01-0.57,0.07-0.75c0.17-0.36,0.16-0.65-0.15-0.92c-0.09-0.08-0.19-0.2-0.22-0.31
		C41.51,17.72,41.54,17.57,41.6,17.48 M41.12,19.05c0.16,0.14,0.35,0.25,0.47,0.42c0.13,0.18,0.2,0.41,0.25,0.63
		c0.03,0.11-0.05,0.24-0.08,0.36c-0.14-0.04-0.37-0.03-0.41-0.11c-0.17-0.37-0.28-0.77-0.41-1.16C41,19.14,41.06,19.09,41.12,19.05
		 M40.46,18.81c0.24-0.4,1.16-0.42,1.28-0.13c0.03,0.06-0.1,0.28-0.14,0.27C41.24,18.92,40.87,18.86,40.46,18.81 M41.14,17.23
		c0.07,0.22,0.14,0.44,0.17,0.66c0.01,0.12-0.07,0.24-0.11,0.37c-0.13-0.09-0.33-0.15-0.39-0.27c-0.12-0.26-0.16-0.56-0.25-0.84
		c-0.09-0.26-0.21-0.51-0.34-0.82C40.85,16.39,41.01,16.8,41.14,17.23 M40.44,17.73c0.06,0.03,0.11,0.06,0.17,0.1
		c-0.05,0.18-0.07,0.38-0.16,0.54c-0.16,0.3-0.35,0.58-0.56,0.84c-0.08,0.1-0.25,0.14-0.38,0.2c-0.03-0.14-0.13-0.31-0.08-0.41
		C39.67,18.5,39.96,18.02,40.44,17.73 M35.64,16.24c0.07-0.14,0.19-0.37,0.29-0.37c0.32,0,0.72-0.02,0.96,0.16
		c0.6,0.44,1.15,0.97,1.13,1.84c0.12-0.21,0.24-0.41,0.36-0.62c0.05,0.02,0.1,0.04,0.15,0.06c-0.06,0.17-0.15,0.34-0.15,0.51
		c0,0.17,0.09,0.35,0.13,0.52c0.16-0.06,0.32-0.11,0.48-0.17c0.19-0.07,0.38-0.14,0.56-0.22c0.04,0.06,0.09,0.11,0.13,0.17
		c-0.12,0.16-0.22,0.35-0.38,0.46c-0.44,0.3-0.48,0.67,0,0.9c0.41,0.2,0.89,0.27,1.33,0.41c0.14,0.05,0.27,0.15,0.4,0.22
		c-0.12,0.09-0.24,0.24-0.37,0.26c-1.09,0.12-2.05-0.57-2.59-1.76c-0.31-0.69-0.66-1.38-1.05-2.03c-0.17-0.27-0.5-0.45-0.75-0.66
		c-0.12,0.12-0.14,0.14-0.16,0.16c-0.09,0.13-0.18,0.26-0.28,0.38C35.76,16.4,35.62,16.28,35.64,16.24 M38.25,21.87
		c-0.02,0.13-0.03,0.26-0.06,0.53c-0.47-0.27-0.91-0.48-1.29-0.76c-0.96-0.69-1.7-1.56-1.93-2.77c-0.11-0.58,0.06-1.09,0.53-1.43
		c0.19-0.13,0.56-0.14,0.79-0.04c0.12,0.05,0.1,0.43,0.14,0.67c-0.18,0-0.37,0-0.55-0.01c-0.06,0-0.11-0.05-0.31-0.16
		c0.04,0.39,0.01,0.7,0.1,0.96c0.32,0.94,1.03,1.51,1.93,1.88C38.35,21.05,38.35,21.05,38.25,21.87 M38.57,22.86
		c-0.23-0.82-0.06-1.61,0.22-2.38c0.04-0.11,0.23-0.15,0.35-0.23c0.08,0.14,0.23,0.29,0.21,0.41c-0.06,0.51-0.21,1.01-0.27,1.53
		c-0.11,0.89,0.3,1.36,1.19,1.49c0.21,0.03,0.4,0.19,0.6,0.29C39.88,24.48,38.87,23.93,38.57,22.86 M43.12,27.3
		c-0.15,0.22-0.22,0.38-0.28,0.38c-0.14-0.01-0.33-0.05-0.42-0.15c-0.39-0.44-0.44-0.99-0.43-1.56c0-0.11,0.02-0.21,0.04-0.4
		c-0.22,0.26-0.4,0.46-0.57,0.67c-0.04-0.03-0.09-0.06-0.13-0.1c0.03-0.08,0.03-0.19,0.08-0.25c0.4-0.39,0.33-0.81,0.12-1.25
		c-0.37-0.77-0.97-1.29-1.73-1.65c-0.52-0.25-0.74-1.37-0.35-1.81c0.05-0.05,0.14-0.08,0.21-0.08c1.53-0.04,2.86-0.7,4.17-1.41
		c0.22-0.12,0.46-0.22,0.68-0.33c0.05,0.07,0.09,0.14,0.14,0.21c-0.71,0.52-1.51,0.89-2.33,1.2c-0.84,0.32-1.72,0.52-2.73,0.82
		c0.39-0.02,0.66-0.02,0.91-0.06c1.33-0.24,2.55-0.78,3.73-1.42c0.5-0.27,0.62-0.2,0.79,0.34c0.09,0.28,0.02,0.42-0.25,0.52
		c-0.95,0.35-1.89,0.7-2.83,1.08c-0.28,0.11-0.59,0.25-0.77,0.47c-0.25,0.3-0.44,0.3-0.74,0.11c-0.18-0.12-0.4-0.19-0.66-0.18
		c0.07,0.06,0.13,0.14,0.21,0.18c1.37,0.7,2.17,1.77,2.22,3.35c0.01,0.26,0.04,0.52,0.09,0.78C42.36,27.13,42.44,27.5,43.12,27.3
		 M42.61,22.46c-0.87,0.32-0.88,0.31-0.87,1.23c-0.78-0.62-0.73-1.05,0.12-1.39c0.98-0.39,1.98-0.75,2.97-1.11
		c0.13-0.05,0.31,0.02,0.47,0.04c-0.11,0.1-0.2,0.25-0.32,0.3C44.19,21.86,43.41,22.17,42.61,22.46"/>
	<path class="st3" d="M44.11,11.1c0.01,0.06,0.02,0.12,0.02,0.18c0,0.42-0.31,0.81-0.31,1.21c0,0.2,0.08,0.41,0.32,0.62
		c0.05,0.04,0.02,0.16,0.04,0.23c0.03,0.11,0.08,0.21,0.12,0.31c0.06-0.11,0.17-0.22,0.17-0.33c0,0,0,0,0-0.01
		c-0.02-0.4-0.07-0.8-0.11-1.19l0,0l0,0c0.04-0.01,0.08-0.02,0.12-0.02c0.16,0.43,0.22,0.87,0.22,1.31c0,0.91-0.24,1.82-0.24,2.73
		c0,0.21,0.01,0.42,0.04,0.63c0.08-0.41,0.1-0.83,0.17-1.24c0.14-0.82,0.32-1.62,0.46-2.44c0.02-0.14,0.03-0.28,0.04-0.42
		C45.17,11.95,44.83,11.42,44.11,11.1"/>
	<path class="st3" d="M43.42,17.98c-0.03,0-0.1,0.07-0.16,0.11c0,0,0,0,0,0c0,0,0,0,0,0c0,0,0,0,0,0c0,0,0,0,0,0c0,0,0,0,0,0
		c0,0,0,0,0,0c0,0,0,0,0,0c0.09,0.14,0.15,0.26,0.24,0.4l0,0l0,0c-0.26,0.12-0.49,0.23-0.8,0.38c0.1,0.03,0.2,0.04,0.29,0.04
		c0,0,0,0,0,0c0,0,0,0,0,0c0.47,0,0.83-0.31,0.76-0.66c0,0,0-0.01,0-0.01l0,0C43.72,18.14,43.55,18.05,43.42,17.98
		C43.43,17.98,43.43,17.98,43.42,17.98C43.43,17.98,43.42,17.98,43.42,17.98C43.42,17.98,43.42,17.98,43.42,17.98"/>
	<path class="st3" d="M45.33,13.82c-0.23,0.67-0.37,1.32-0.49,1.97c-0.03,0.14-0.05,0.27-0.05,0.4c0,0.25,0.08,0.49,0.37,0.68
		c0.05,0.04,0.06,0.13,0.06,0.25c0,0.08-0.01,0.18-0.01,0.26c0,0.03,0,0.06,0,0.08l0,0l0,0l0,0c-0.07,0-0.14,0.02-0.22,0.03
		c-0.08,0.01-0.16,0.02-0.23,0.02c0,0,0,0,0,0l0,0l0,0c0,0,0,0,0,0c-0.06,0-0.12-0.01-0.16-0.03c0,0,0,0,0,0
		c-0.15-0.08-0.24-0.33-0.31-0.52c-0.15-0.39-0.26-0.8-0.42-1.2l0,0c0,0,0,0,0,0c0,0,0,0,0,0c0,0,0,0,0,0c0,0,0,0,0,0l0,0
		c0,0,0,0,0,0c-0.08-0.19-0.51-0.4-0.8-0.41c-0.01,0-0.02,0-0.03,0c0,0,0,0,0,0c-0.06,0-0.11,0.01-0.15,0.03
		c-0.29,0.14-0.43,0.37-0.43,0.68c0,0.05,0,0.11,0.01,0.17c0.02,0.11,0.02,0.23,0.02,0.35c0,0.2-0.01,0.42-0.02,0.67c0,0,0,0,0,0
		c0,0,0,0,0,0c0.04,0.01,0.08,0.02,0.12,0.02c0,0,0,0,0,0c0,0,0,0,0,0c0.32,0,0.31-0.43,0.52-0.64c0.03-0.04,0.08-0.06,0.13-0.08
		c0,0,0,0,0,0c0,0,0,0,0,0c0,0,0,0,0,0c0,0,0,0,0,0c0,0,0.01,0,0.01,0l0,0c-0.15-0.13-0.28-0.19-0.33-0.3
		c-0.06-0.13-0.04-0.29-0.06-0.44l0,0l0,0c0.05,0,0.1-0.01,0.15-0.01c0.05,0,0.11-0.01,0.16-0.01c0,0,0,0,0,0l0,0l0,0c0,0,0,0,0,0
		c0.06,0,0.11,0.01,0.17,0.02c0,0,0,0,0,0l0,0c0.1,0.03,0.17,0.19,0.22,0.31c0.24,0.59,0.46,1.18,0.7,1.77
		c0.47,1.19,0.94,2.38,1.42,3.57l0.09-0.68c-0.01-0.02-0.02-0.04-0.03-0.07c-0.31-0.8-0.61-1.6-0.92-2.4l0,0l0,0
		c0.05-0.02,0.11-0.05,0.16-0.07c0.28,0.7,0.55,1.4,0.83,2.11l0.74-5.73c-0.11,0.11-0.23,0.21-0.35,0.22c0,0-0.01,0-0.01,0h0l0,0
		l0,0c0,0,0,0,0,0c-0.19,0-0.42-0.21-0.57-0.38c0,0,0,0,0,0c0,0,0,0,0,0c0,0,0,0,0,0c0,0,0,0,0,0c0,0,0,0,0,0c0,0,0,0,0,0
		c0,0,0,0,0,0c0,0,0,0,0,0c0,0,0,0,0,0C45.49,14.26,45.43,14.02,45.33,13.82"/>
	<path class="st3" d="M41.67,17.46C41.67,17.46,41.67,17.46,41.67,17.46c-0.04,0-0.06,0.01-0.07,0.02
		c-0.04,0.07-0.07,0.16-0.07,0.25c0,0.03,0,0.07,0.01,0.1c0.03,0.12,0.13,0.23,0.22,0.31c0.18,0.16,0.26,0.32,0.26,0.5
		c0,0.13-0.04,0.26-0.11,0.41c-0.09,0.18-0.05,0.43-0.07,0.75c0.48-0.25,0.74-0.71,0.74-1.17c0-0.42-0.22-0.85-0.67-1.12l0,0
		c0,0,0,0,0,0c0,0,0,0,0,0c0,0,0,0,0,0c0,0,0,0,0,0C41.84,17.48,41.74,17.46,41.67,17.46C41.67,17.46,41.67,17.46,41.67,17.46"/>
	<path class="st3" d="M42.68,23.18C42.67,23.18,42.67,23.18,42.68,23.18c-0.01,0-0.01,0-0.01,0c0,0,0,0,0,0c0,0,0,0,0,0
		c-0.04,0.01-0.1,0.02-0.15,0.05c0,0,0,0,0,0c0,0,0,0,0,0c0,0,0,0,0,0c0,0,0,0,0,0c-0.03,0.01-0.06,0.03-0.08,0.05c0,0,0,0,0,0
		c0,0,0,0,0,0c0,0,0,0,0,0c0,0,0,0,0,0c0,0,0,0,0,0c0,0-0.01,0-0.01,0.01c0,0,0,0,0,0c0,0,0,0,0,0c0,0,0,0,0,0c0,0,0,0,0,0
		c0,0,0,0,0,0c0,0,0,0,0,0c-0.02,0.02-0.04,0.08-0.04,0.14c0,0.05,0.01,0.11,0.03,0.12l0,0c0,0,0,0,0.01,0
		c0.04,0.03,0.1,0.03,0.16,0.03c0,0,0,0,0,0c0,0,0,0,0,0c0,0,0,0,0,0c0,0,0,0,0,0c0.01,0,0.02,0,0.03,0c0.01,0,0.02,0,0.03,0
		c0.01,0,0.02,0,0.03,0l0,0l0,0c0.01,0,0.03,0,0.04,0l0,0l0,0c0,0,0,0,0,0c0,0,0.01,0,0.01,0c0,0,0,0,0,0c0,0,0,0,0,0
		c0.04,0,0.07-0.01,0.13-0.02c0,0,0.01,0,0.01,0c0.01,0,0.01,0,0.02,0c0,0,0.01,0,0.01,0c0,0,0.01,0,0.01,0c0.01,0,0.02,0,0.03,0
		c0,0,0,0,0,0c0.01,0,0.01,0,0.02,0c0,0,0,0,0,0c0,0,0.01,0,0.01,0c0.21,1.31,0.26,2.67,1.19,3.71c0.23,0.25,0.47,0.48,0.72,0.67
		l0.1-0.8c-0.13-0.1-0.18-0.2-0.18-0.32c0-0.14,0.08-0.3,0.22-0.53c0.05-0.08,0.06-0.18,0.06-0.28c0-0.07,0-0.14,0-0.2
		c0-0.03,0-0.06,0-0.09c-0.14,0.08-0.28,0.16-0.43,0.22l0,0c0,0,0,0,0,0c0,0,0,0,0,0c0,0,0,0,0,0c0,0,0,0,0,0c0,0,0,0,0,0
		c0,0-0.01,0-0.01,0.01c0,0,0,0,0,0c0,0,0,0,0,0c0,0,0,0,0,0c0,0,0,0,0,0c-0.15,0.06-0.36,0.16-0.45,0.16l0,0l0,0c0,0,0,0,0,0
		c-0.02,0-0.03,0-0.03-0.01c0,0,0,0,0,0c-0.14-0.16-0.22-0.4-0.24-0.62c0,0,0-0.01,0-0.01c0-0.13,0.17-0.26,0.24-0.4
		c0.07-0.14,0.12-0.28,0.15-0.43c0,0,0,0,0,0c0,0,0,0,0,0c0,0,0,0,0,0c0-0.02-0.13-0.09-0.18-0.09c0,0,0,0,0,0c0,0-0.01,0-0.01,0
		c0,0,0,0,0,0l0,0c-0.13,0.09-0.25,0.19-0.34,0.32c-0.09,0.12-0.14,0.28-0.21,0.42c-0.09-0.55-0.14-1.05-0.28-1.52
		c-0.07-0.23-0.32-0.42-0.52-0.6c0,0,0,0,0,0c0,0,0,0,0,0c0,0,0,0,0,0C42.7,23.18,42.69,23.18,42.68,23.18
		C42.68,23.18,42.68,23.18,42.68,23.18"/>
	<path class="st3" d="M36.11,15.87C36.11,15.87,36.11,15.87,36.11,15.87c-0.05,0-0.09,0-0.13,0c-0.02,0-0.03,0-0.05,0l0,0
		c-0.1,0-0.23,0.22-0.29,0.37c0,0,0,0.01,0,0.01c0,0.05,0.13,0.15,0.19,0.23c0.09-0.13,0.18-0.26,0.28-0.38
		c0.02-0.02,0.04-0.04,0.16-0.16c0.25,0.21,0.59,0.38,0.75,0.66c0.4,0.65,0.74,1.33,1.05,2.03l0,0c0.01,0.02,0.01,0.03,0.02,0.05
		c0.5,1.07,1.36,1.73,2.34,1.73c0,0,0,0,0,0h0c0.08,0,0.15,0,0.23-0.01c0,0,0,0,0.01,0c0.13-0.01,0.24-0.17,0.37-0.26
		c-0.13-0.08-0.26-0.18-0.4-0.22c-0.44-0.14-0.92-0.21-1.33-0.41c-0.23-0.11-0.34-0.26-0.34-0.41c0-0.16,0.12-0.33,0.34-0.49
		c0.16-0.11,0.25-0.3,0.38-0.46c-0.04-0.06-0.09-0.11-0.13-0.17c-0.19,0.07-0.38,0.15-0.56,0.22c-0.16,0.06-0.32,0.11-0.48,0.17
		c-0.05-0.17-0.13-0.34-0.13-0.51c0,0,0-0.01,0-0.01c0-0.17,0.1-0.34,0.15-0.51c-0.05-0.02-0.1-0.04-0.15-0.06
		c-0.12,0.21-0.24,0.41-0.36,0.62l0,0l0,0c0-0.01,0-0.03,0-0.04c0-0.84-0.55-1.36-1.13-1.8l0,0c0,0-0.01,0-0.01-0.01
		c0,0,0,0-0.01-0.01C36.68,15.89,36.39,15.87,36.11,15.87C36.11,15.87,36.11,15.87,36.11,15.87"/>
	<path class="st3" d="M44.53,19.36c-0.23,0.11-0.46,0.21-0.68,0.33c-1.31,0.7-2.63,1.36-4.17,1.41c-0.07,0-0.17,0.03-0.21,0.08
		c-0.14,0.15-0.2,0.39-0.2,0.65c0,0.47,0.21,1,0.55,1.16c0.76,0.36,1.36,0.88,1.73,1.65c0.1,0.21,0.17,0.42,0.17,0.62
		c0,0.22-0.08,0.43-0.29,0.63c-0.06,0.05-0.06,0.16-0.08,0.25c0.04,0.03,0.09,0.06,0.13,0.1c0.17-0.2,0.35-0.41,0.57-0.67l0,0l0,0
		c-0.02,0.18-0.04,0.29-0.04,0.4c0,0.06,0,0.12,0,0.18c0,0.5,0.08,0.98,0.43,1.38c0.09,0.1,0.28,0.15,0.42,0.15c0,0,0,0,0,0
		c0,0,0,0,0,0c0,0,0,0,0,0c0.04,0,0.09-0.09,0.17-0.22c0.02-0.03,0.04-0.06,0.06-0.09c0,0,0,0,0,0c0,0,0,0,0-0.01c0,0,0,0,0,0
		c0,0,0,0,0,0c0,0,0,0,0,0c0,0,0,0,0,0c0,0,0,0,0,0c0,0,0,0,0,0c0,0,0,0,0,0c0,0,0-0.01,0.01-0.01c0,0,0,0,0,0c0,0,0,0,0,0
		c0-0.01,0.01-0.01,0.01-0.02c0,0,0,0,0,0c0,0,0,0,0,0c0,0,0,0,0-0.01c0,0,0,0,0-0.01c0,0,0,0,0,0c-0.13,0.04-0.24,0.05-0.33,0.05
		c0,0,0,0,0,0l0,0l0,0c0,0,0,0,0,0c-0.38,0-0.45-0.29-0.5-0.59c0,0,0,0,0,0c0,0,0-0.01,0-0.01l0,0c-0.04-0.26-0.08-0.52-0.09-0.78
		c-0.04-1.58-0.84-2.65-2.22-3.35c-0.08-0.04-0.14-0.12-0.21-0.18l0,0l0,0c0,0,0,0,0,0c0,0,0,0,0,0c0,0,0,0,0,0c0,0,0,0,0,0
		c0,0,0,0,0,0c0,0,0,0,0,0c0,0,0,0,0,0l0,0l0,0c0,0,0,0,0,0c0.25,0,0.46,0.06,0.63,0.17c0,0,0,0,0.01,0c0,0,0,0,0,0c0,0,0,0,0,0
		c0,0,0,0,0,0c0,0,0,0,0,0c0,0,0.01,0.01,0.01,0.01c0.12,0.08,0.23,0.12,0.33,0.12c0,0,0,0,0,0c0,0,0,0,0,0
		c0.13,0,0.25-0.07,0.39-0.24c0,0,0,0,0,0c0,0,0,0,0,0l0,0c0.19-0.22,0.5-0.36,0.77-0.47c0.94-0.37,1.88-0.73,2.83-1.08
		c0.2-0.07,0.29-0.17,0.29-0.32c0-0.06-0.01-0.12-0.04-0.2l0,0c0,0,0,0,0-0.01c0,0,0,0,0,0c-0.11-0.34-0.2-0.49-0.37-0.49
		c0,0,0,0,0,0c0,0,0,0,0,0c-0.1,0-0.23,0.05-0.4,0.14c-0.01,0-0.01,0.01-0.02,0.01l0,0c-1.18,0.64-2.4,1.17-3.73,1.42
		c-0.25,0.05-0.52,0.04-0.91,0.06l0,0l0,0c1.01-0.3,1.89-0.5,2.73-0.82c0.82-0.31,1.62-0.68,2.33-1.2
		C44.62,19.5,44.58,19.43,44.53,19.36"/>
	<path class="st3" d="M39.14,20.24c-0.12,0.08-0.31,0.12-0.35,0.23c-0.19,0.52-0.32,1.05-0.32,1.58c0,0.26,0.03,0.53,0.11,0.8l0,0
		c0,0,0,0.01,0,0.01c0.22,0.79,0.83,1.29,1.53,1.29c0,0,0,0,0,0c0,0,0,0,0,0c0.25,0,0.5-0.06,0.76-0.19c0,0,0,0,0.01,0c0,0,0,0,0,0
		l0,0c-0.2-0.1-0.39-0.26-0.6-0.29c-0.8-0.12-1.21-0.5-1.21-1.22c0-0.08,0.01-0.17,0.02-0.27c0.06-0.51,0.21-1.02,0.27-1.53
		c0-0.01,0-0.01,0-0.02C39.35,20.52,39.21,20.38,39.14,20.24"/>
	<path class="st3" d="M44.94,21.18C44.94,21.18,44.94,21.18,44.94,21.18c-0.04,0-0.07,0-0.1,0.02c-1,0.35-1.99,0.72-2.97,1.11
		c-0.45,0.18-0.67,0.38-0.68,0.62c0,0.22,0.18,0.47,0.55,0.76c0-0.06,0-0.12,0-0.18c0-0.75,0.06-0.76,0.87-1.05
		c0.8-0.29,1.58-0.6,2.37-0.92c0.13-0.05,0.22-0.2,0.32-0.3l0,0c0,0-0.01,0-0.01,0c0,0-0.01,0-0.01,0c0,0,0,0,0,0c0,0-0.01,0-0.01,0
		c0,0,0,0,0,0c-0.04-0.01-0.07-0.01-0.11-0.02c0,0,0,0,0,0c0,0-0.01,0-0.01,0C45.08,21.2,45.01,21.18,44.94,21.18
		C44.94,21.18,44.94,21.18,44.94,21.18"/>
	<path class="st3" d="M35.92,17.33C35.92,17.33,35.92,17.33,35.92,17.33c-0.16,0-0.32,0.03-0.42,0.11c0,0,0,0,0,0l0,0
		c-0.38,0.27-0.56,0.65-0.56,1.09c0,0.11,0.01,0.22,0.03,0.34c0.23,1.21,0.96,2.08,1.93,2.77c0.39,0.28,0.83,0.49,1.29,0.76
		c0.03-0.27,0.04-0.4,0.06-0.53c0.03-0.22,0.05-0.38,0.05-0.51c0-0.34-0.15-0.4-0.7-0.63c-0.89-0.37-1.6-0.94-1.93-1.88
		c-0.09-0.26-0.06-0.57-0.1-0.96l0,0l0,0c0.2,0.11,0.26,0.16,0.31,0.16c0.18,0.01,0.37,0.01,0.55,0.01
		c-0.04-0.23-0.02-0.62-0.14-0.67l0,0c0,0-0.01,0-0.01,0c0,0,0,0,0,0C36.17,17.35,36.05,17.33,35.92,17.33
		C35.92,17.33,35.92,17.33,35.92,17.33"/>
	<path class="st3" d="M41.12,19.05c-0.06,0.05-0.12,0.09-0.18,0.14c0.13,0.39,0.25,0.79,0.41,1.16c0.04,0.08,0.27,0.08,0.41,0.11
		c0.03-0.1,0.08-0.22,0.08-0.32c0-0.02,0-0.03-0.01-0.05c-0.05-0.22-0.13-0.45-0.25-0.63C41.48,19.3,41.28,19.18,41.12,19.05"/>
	<path class="st3" d="M43.28,22.33c-0.01,0.07-0.02,0.14-0.03,0.22l0,0c0,0,0.01,0.01,0.01,0.01c0,0,0,0,0,0c0,0,0,0,0.01,0
		c0.63,0.47,1.36,0.68,2.11,0.68c0,0,0,0,0,0h0c0.02,0,0.04,0,0.07,0l0,0l0.08-0.64c-0.03,0-0.07,0-0.1,0c0,0,0,0,0,0l0,0l0,0
		c0,0,0,0,0,0c-0.37,0-0.76-0.06-1.15-0.19c0,0,0,0,0,0c-0.01,0-0.01,0-0.02-0.01c0,0-0.01,0-0.01,0c0,0,0,0,0,0
		c-0.01,0-0.01,0-0.02-0.01c0,0,0,0,0,0c-0.16-0.05-0.32-0.06-0.5-0.06c0,0,0,0,0,0c0,0,0,0,0,0c-0.04,0-0.08,0-0.13,0
		c0,0-0.01,0-0.01,0l0,0l0,0c0,0-0.01,0-0.01,0c-0.04,0-0.09,0-0.13,0c0,0,0,0,0,0l0,0l0,0c0,0,0,0,0,0c-0.05,0-0.1,0-0.15,0
		C43.29,22.33,43.29,22.33,43.28,22.33"/>
	<path class="st3" d="M41.24,18.48C41.24,18.48,41.24,18.48,41.24,18.48c-0.3,0-0.64,0.1-0.77,0.32c0,0,0,0,0,0.01c0,0,0,0,0,0
		c0.41,0.06,0.78,0.12,1.15,0.14c0,0,0,0,0,0c0,0,0,0,0,0c0.03,0,0.1-0.1,0.13-0.18c0,0,0,0,0,0c0,0,0,0,0,0
		c0.01-0.03,0.02-0.06,0.01-0.08c0,0,0,0,0,0c0,0,0,0,0,0c0,0,0,0,0,0c0,0,0,0,0,0l0,0C41.69,18.55,41.48,18.48,41.24,18.48
		C41.24,18.48,41.24,18.48,41.24,18.48"/>
	<path class="st3" d="M40.22,16.33c0.13,0.31,0.25,0.56,0.34,0.82c0.09,0.28,0.13,0.57,0.25,0.84c0.06,0.12,0.25,0.18,0.39,0.27
		c0.04-0.11,0.11-0.23,0.11-0.34c0-0.01,0-0.02,0-0.02c-0.03-0.22-0.1-0.44-0.17-0.66C41.01,16.8,40.85,16.39,40.22,16.33"/>
	<path class="st3" d="M40.44,17.73c-0.49,0.3-0.77,0.78-1.01,1.28c-0.01,0.02-0.01,0.04-0.01,0.07c0,0.1,0.07,0.23,0.09,0.34
		c0.13-0.07,0.29-0.1,0.38-0.2c0.21-0.26,0.4-0.55,0.56-0.84c0.09-0.16,0.11-0.36,0.16-0.54C40.56,17.79,40.5,17.76,40.44,17.73"/>
	<path class="st3" d="M42.66,13.25C42.66,13.25,42.66,13.25,42.66,13.25c-0.09,0-0.19,0.01-0.27,0.02c0,0,0,0,0,0c0,0,0,0,0,0
		c0,0,0,0,0,0c0,0,0,0,0,0c0,0,0,0-0.01,0c0,0,0,0,0,0c0,0-0.01,0-0.01,0l0,0c-0.05,0.01-0.09,0.17-0.11,0.27c0,0,0,0,0,0
		c0,0.01,0.02,0.02,0.04,0.04c0.04,0.02,0.1,0.05,0.13,0.05c0,0,0,0,0,0c0,0,0.01,0,0.01,0c0,0,0,0,0,0l0,0c0,0,0,0,0,0
		c0,0,0,0,0.01,0c0.1-0.01,0.19-0.02,0.26-0.02c0,0,0,0,0,0l0,0l0,0c0,0,0,0,0,0c0.35,0,0.47,0.15,0.63,0.6c0,0,0,0,0,0
		c0,0,0,0.01,0,0.01c0,0,0,0,0,0c0,0,0,0.01,0,0.01c0.12,0.33,0.25,0.67,0.43,0.97c0.09,0.16,0.3,0.24,0.46,0.36
		c0-0.04,0.01-0.08,0.01-0.12c-0.24-0.5-0.45-1.01-0.73-1.49c-0.15-0.25-0.38-0.48-0.62-0.65l0,0c0,0,0,0,0,0c0,0,0,0,0,0
		C42.85,13.27,42.76,13.25,42.66,13.25C42.66,13.25,42.66,13.25,42.66,13.25"/>
	<path class="st2" d="M11.2,10.49l-0.18-0.06c-0.05,1.13-0.32,2.2-0.87,3.06l0.28,0.21c0.04-0.15,0.08-0.3,0.13-0.44
		C10.89,12.34,11.11,11.42,11.2,10.49"/>
	<path class="st2" d="M8.93,12.15c0.2-0.78,0.33-1.56,0.32-2.33L9.02,9.74c0.02,0.88-0.12,1.77-0.45,2.57l0.32,0.24
		C8.87,12.44,8.9,12.27,8.93,12.15"/>
	<g>
		<path class="st4" d="M11.02,10.42l-1.77-0.6c0,0.01,0,0.01,0,0.02c0,0.77-0.12,1.54-0.32,2.31c-0.02,0.08-0.04,0.19-0.04,0.28
			c0,0.04,0,0.08,0.01,0.12l1.25,0.93C10.7,12.63,10.98,11.55,11.02,10.42z"/>
	</g>
	<path class="st4" d="M11.2,10.49c-0.09,0.93-0.31,1.85-0.64,2.76c-0.05,0.14-0.09,0.29-0.13,0.44l0.17,0.13l0.08,0.06
		c0.51-1.06,0.78-2.16,0.86-3.27L11.2,10.49z"/>
	<path class="st4" d="M13.97,15.48c-0.11-0.83-0.25-1.67-0.48-2.48c-0.15-0.53-0.23-1.05-0.23-1.57c0-0.08,0-0.16,0.01-0.24
		l-0.39-0.13c-0.04,0.27-0.06,0.54-0.08,0.8c-0.04,0.55-0.09,1.16,0.43,1.58c0.05,0.04,0.03,0.16,0.05,0.37
		c-0.28-0.28-0.45-0.5-0.66-0.65c-0.11-0.08-0.3-0.05-0.46-0.08c0.05,0.17,0.06,0.38,0.17,0.48c0.16,0.15,0.39,0.23,0.59,0.34
		c0.42,0.23,0.6,0.6,0.51,1.06c-0.03,0.15-0.17,0.35-0.3,0.4c-0.02,0.01-0.04,0.01-0.06,0.01c-0.12,0-0.28-0.09-0.41-0.14
		c-0.13-0.05-0.25-0.11-0.37-0.17c0,0,0,0,0,0l1.17,0.87l0.46,0.34c0.05-0.19,0.08-0.38,0.08-0.57
		C13.98,15.63,13.98,15.55,13.97,15.48z"/>
	<path class="st2" d="M12.91,13.91c-0.2-0.11-0.43-0.19-0.59-0.34c-0.11-0.11-0.12-0.32-0.17-0.48c0.16,0.02,0.35-0.01,0.46,0.08
		c0.21,0.15,0.38,0.37,0.66,0.65c-0.03-0.21-0.01-0.33-0.05-0.37c-0.52-0.43-0.46-1.04-0.43-1.58c0.02-0.27,0.04-0.54,0.08-0.8
		l-1.33-0.45c-0.08,1.11-0.35,2.21-0.86,3.27l0.19,0.14l0.6,0.45l0.81,0.6c0.12,0.06,0.25,0.12,0.37,0.17
		c0.16,0.06,0.35,0.18,0.47,0.13c0.13-0.05,0.28-0.24,0.3-0.4C13.51,14.51,13.33,14.14,12.91,13.91z"/>
	<polyline class="st5" points="3.11,8.24 4.36,9.17 4.36,9.17 3.11,8.24 	"/>
	<path class="st2" d="M4.38,9.18C4.38,9.18,4.38,9.18,4.38,9.18C4.38,9.18,4.38,9.18,4.38,9.18"/>
	<path class="st4" d="M6.62,8.93L6.62,8.93C6.6,9.01,6.59,9.07,6.59,9.13c0,0.29,0.32,0.33,1.15,0.42C7.81,9.5,7.91,9.45,8.01,9.4
		L6.62,8.93"/>
	<path class="st4" d="M6.71,10.92l1.31,0.97c0.02-0.01,0.04-0.01,0.06-0.02c-0.06-0.18-0.1-0.37-0.2-0.52
		c-0.05-0.08-0.19-0.12-0.3-0.16C7.3,11.1,7,11,6.71,10.92"/>
	<g>
		<path class="st2" d="M8.01,9.4C7.91,9.45,7.81,9.5,7.74,9.55c-1-0.11-1.26-0.14-1.12-0.62L6.49,8.88
			C6.34,9.28,6.2,9.67,6.05,10.06c-0.04,0.11-0.08,0.21-0.13,0.28l0.79,0.58C7,11,7.3,11.1,7.59,11.2c0.11,0.04,0.25,0.07,0.3,0.16
			c0.09,0.16,0.13,0.35,0.2,0.52c-0.02,0-0.04,0.01-0.06,0.02l0.27,0.2c0.01-0.06,0.02-0.12,0.03-0.18c0.1-0.77,0.24-1.54,0.27-2.32
			L8.01,9.4z M8.25,9.91c-0.01,0-0.02,0.01-0.04,0.01C8.18,9.93,8.16,9.94,8.13,9.95c-0.01,0-0.03,0.01-0.04,0.01
			C8.07,9.97,8.05,9.97,8.02,9.98c-0.01,0-0.03,0.01-0.04,0.01C7.96,9.99,7.93,10,7.91,10c-0.01,0-0.03,0-0.04,0.01
			c-0.03,0-0.05,0.01-0.08,0.01c-0.01,0-0.02,0-0.03,0c-0.04,0-0.07,0.01-0.11,0.01c-0.01,0-0.01,0-0.02,0c-0.03,0-0.05,0-0.08,0
			c0,0,0,0,0,0c0,0,0,0,0,0c0,0-0.01,0-0.01,0c-0.03,0-0.06,0-0.09,0c-0.01,0-0.02,0-0.04,0c-0.04,0-0.08-0.01-0.12-0.01
			c-0.01,0-0.01,0-0.02,0c-0.03,0-0.07-0.01-0.1-0.01C7.15,10,7.13,10,7.12,10c-0.03,0-0.05-0.01-0.08-0.01
			c-0.02,0-0.03-0.01-0.05-0.01c-0.02,0-0.05-0.01-0.07-0.01c-0.02,0-0.03-0.01-0.05-0.01C6.84,9.94,6.81,9.94,6.79,9.93
			c-0.02,0-0.04-0.01-0.05-0.01C6.71,9.91,6.69,9.9,6.66,9.9c-0.02,0-0.04-0.01-0.05-0.01C6.59,9.88,6.56,9.87,6.54,9.86
			c-0.01,0-0.02-0.01-0.03-0.01c0,0,0,0-0.01,0c0,0,0,0,0,0c0,0,0,0-0.01,0c0,0,0,0,0,0c0,0-0.01,0-0.01,0c0,0,0,0-0.01,0
			c0,0,0,0,0,0c0,0-0.01,0-0.01,0c0-0.07,0-0.13,0-0.2C7.09,9.66,7.71,9.68,8.34,9.7c0.01,0.06,0.01,0.12,0.02,0.17
			C8.32,9.89,8.28,9.9,8.25,9.91z"/>
		<path class="st4" d="M8.34,9.7C7.71,9.68,7.09,9.66,6.46,9.64c0,0.07,0,0.13,0,0.2c0.03,0.01,0.05,0.02,0.08,0.02
			c0.02,0.01,0.05,0.01,0.07,0.02c0.02,0,0.04,0.01,0.05,0.01C6.69,9.9,6.71,9.91,6.74,9.92c0.02,0,0.04,0.01,0.05,0.01
			c0.02,0.01,0.05,0.01,0.07,0.02c0.02,0,0.03,0.01,0.05,0.01c0.02,0.01,0.05,0.01,0.07,0.01c0.02,0,0.03,0.01,0.05,0.01
			c0.03,0,0.05,0.01,0.08,0.01c0.01,0,0.03,0,0.04,0.01c0.03,0,0.07,0.01,0.1,0.01c0.01,0,0.01,0,0.02,0c0.04,0,0.08,0.01,0.12,0.01
			c0.01,0,0.02,0,0.04,0c0.03,0,0.06,0,0.09,0c0.03,0,0.06,0,0.09,0c0.01,0,0.01,0,0.02,0c0.04,0,0.07,0,0.11-0.01
			c0.01,0,0.02,0,0.03,0c0.03,0,0.05-0.01,0.08-0.01c0.01,0,0.03,0,0.04-0.01c0.02,0,0.05-0.01,0.07-0.01
			c0.01,0,0.03-0.01,0.04-0.01c0.02-0.01,0.05-0.01,0.07-0.02c0.01,0,0.03-0.01,0.04-0.01c0.02-0.01,0.05-0.02,0.07-0.02
			c0.01,0,0.02-0.01,0.04-0.01C8.28,9.9,8.32,9.89,8.36,9.87C8.35,9.81,8.35,9.76,8.34,9.7z"/>
	</g>
	<g>
		<path class="st4" d="M9.02,9.93c0-0.06,0-0.12,0-0.19L8.58,9.59c-0.03,0.77-0.17,1.54-0.27,2.32c-0.01,0.06-0.02,0.12-0.03,0.18
			l0.29,0.22C8.88,11.57,9.02,10.75,9.02,9.93z"/>
	</g>
	<path class="st2" d="M8.58,9.59c-0.03,0.77-0.17,1.54-0.27,2.32c-0.01,0.06-0.02,0.12-0.03,0.18l0,0c0,0,0,0,0,0
		c0.01-0.06,0.02-0.12,0.03-0.18C8.41,11.14,8.55,10.37,8.58,9.59L8.58,9.59"/>
	<path class="st4" d="M5.73,8.63L5.73,8.63C5.56,9.1,5.42,9.56,5.35,9.91l0,0l0.57,0.43c0.05-0.07,0.09-0.17,0.13-0.28
		C6.2,9.67,6.34,9.28,6.49,8.88L5.73,8.63"/>
	<path class="st6" d="M43.68,8.19c-0.42-0.62-0.82-1.24-1.24-1.85l-0.46,0.11c0.47,0.65,0.94,1.31,1.41,1.96L43.68,8.19"/>
	<path class="st6" d="M41.64,9.74c-0.72-0.9-1.43-1.8-2.14-2.69l-0.27,0.07c0.69,0.96,1.36,1.94,2.03,2.92L41.64,9.74"/>
	<path class="st6" d="M14.44,16.92l-0.29,0.5c0.33,0.04,0.67,0.11,1.01,0.12C14.91,17.34,14.68,17.13,14.44,16.92"/>
	<path class="st6" d="M0.13,41.32l2.05-1.56c-0.44,0.21-0.9,0.34-1.37,0.41L0.13,41.32"/>
	<path class="st6" d="M3.86,35.63c0.34-0.67,0.56-1.4,0.84-2.1l-2.5,4.26C2.87,37.22,3.42,36.5,3.86,35.63"/>
	<path class="st7" d="M30.25,17.67C30.25,17.67,30.25,17.67,30.25,17.67c-0.18,0-0.36,0.01-0.54,0.02
		c-0.09,0.01-0.18,0.01-0.27,0.01c-0.02,0-0.03,0-0.05,0c0,0,0,0,0,0c-0.01,0-0.02,0-0.03,0l0,0c0.08,0.16,0.12,0.43,0.24,0.46
		c0.25,0.07,0.51,0.12,0.76,0.16l0,0l0,0l0.04-0.03l0.51-0.39c-0.08-0.11-0.16-0.19-0.25-0.21l0,0c0,0-0.01,0-0.01,0
		C30.53,17.67,30.39,17.67,30.25,17.67C30.25,17.67,30.25,17.67,30.25,17.67"/>
	<path class="st7" d="M7.23,29.2l-1.21,2.06c0.16,0.25,0.47,0.39,1.06,0.56C7.13,30.94,7.19,30.07,7.23,29.2"/>
	<path class="st7" d="M8.14,27.66l-0.37,0.63c-0.16,0.7-0.26,1.68-0.26,2.54c0,0.8,0.08,1.51,0.27,1.79
		c0.18-1.34,0.42-2.58,0.42-3.88C8.2,28.38,8.18,28.03,8.14,27.66"/>
	<path class="st7" d="M30.4,13.07c0,0-0.01,0-0.01,0c-0.2,0-0.36,0.11-0.42,0.46c0,0,0,0,0,0c0,0,0,0,0,0c0,0,0,0,0,0
		c-0.01,0.06-0.01,0.11-0.01,0.15c0,0.59,0.71,0.35,1,0.51c0,0,0,0,0.01,0c0,0,0,0,0,0c0,0,0,0,0,0c0,0,0,0,0.01,0c0,0,0,0,0,0
		c0,0,0,0,0,0c0,0,0.01,0,0.01,0c0,0,0.01,0,0.01,0c0,0,0,0,0.01,0c0.01,0,0.01,0,0.02,0c0,0,0.01,0,0.01,0c0,0,0,0,0,0
		c0.04,0.01,0.07,0.01,0.11,0.02c0.15,0.03,0.27,0.06,0.39,0.06c0,0,0,0,0,0c0,0,0,0,0,0c0.02,0,0.05,0,0.07,0c0,0,0,0,0,0l0,0
		c0.18-0.02,0.51-0.16,0.51-0.22c0,0,0,0,0,0c-0.02-0.24-0.1-0.53-0.26-0.69l0,0c0,0,0,0,0,0c0,0,0,0,0,0c0,0,0,0,0,0c0,0,0,0,0,0
		c0,0,0,0,0,0c-0.12-0.11-0.36-0.15-0.56-0.15c0,0,0,0,0,0c0,0,0,0,0,0c-0.02,0-0.04,0-0.06,0l0,0c0,0,0,0,0,0c0,0-0.01,0-0.01,0
		c0,0,0,0,0,0l0,0l0,0c0,0,0,0,0,0c-0.06,0-0.13-0.01-0.2-0.03c-0.07-0.01-0.13-0.03-0.2-0.05c-0.08-0.02-0.15-0.04-0.23-0.06
		c0,0,0,0,0,0c0,0,0,0,0,0c-0.05-0.01-0.1-0.02-0.15-0.02C30.42,13.07,30.41,13.07,30.4,13.07"/>
	<path class="st7" d="M8.71,26.69l-0.34,0.58c0.15,0.01,0.29,0.02,0.44,0.03c0,0,0.01,0,0.01,0c0.04,0,0.09,0,0.13,0c0,0,0,0,0,0
		c0,0,0,0,0,0c0.26,0,0.53-0.05,0.79-0.08c0.01,0,0.01,0,0.02,0c0.04-0.01,0.09-0.01,0.13-0.02c0,0,0,0,0,0c0,0,0,0,0,0
		c0,0,0.01,0,0.01,0c0,0,0.01,0,0.01,0c0,0,0,0,0,0c0,0,0,0,0,0c0.01,0,0.02,0,0.03,0l0,0c0-0.13,0.01-0.27,0.01-0.4
		C9.54,26.76,9.13,26.72,8.71,26.69"/>
	<path class="st7" d="M5.29,32.85C5.29,32.85,5.29,32.85,5.29,32.85C5.29,32.85,5.29,32.85,5.29,32.85c-0.05,0-0.15,0.06-0.25,0.13
		c0,0,0,0,0,0C5.03,32.99,5.02,33,5.01,33.01c0,0,0,0,0,0c0,0-0.01,0.01-0.01,0.01c0,0,0,0,0,0l0,0l-0.3,0.5l0,0l0,0
		c-0.28,0.7-0.5,1.43-0.84,2.1c-0.44,0.88-1,1.6-1.66,2.15l0,0l0,0l-1.41,2.4c0.47-0.07,0.93-0.2,1.37-0.41l1.78-1.36l3.01-2.29l0,0
		c0-0.02,0-0.03,0-0.05c0-0.1,0-0.22,0-0.34c0-0.08,0-0.16,0.01-0.24c-0.51,0.3-0.84,0.5-1.17,0.69c-0.03-0.05-0.07-0.1-0.1-0.15
		l0,0l0,0c0.14-0.13,0.25-0.31,0.41-0.39c0.49-0.25,0.7-0.66,0.7-1.07c0-0.2-0.05-0.4-0.14-0.58c-0.24-0.49-0.87-0.8-1.36-1.14l0,0
		c0,0,0,0,0,0c0,0,0,0,0,0c0,0,0,0,0,0C5.3,32.85,5.3,32.85,5.29,32.85C5.29,32.85,5.29,32.85,5.29,32.85"/>
	<path class="st7" d="M5.78,31.68l-0.46,0.79c0.92,0.37,1.71,1.02,2.4,1.83c0,0,0,0,0.01,0.01c0.2,0.23,0.38,0.35,0.57,0.35
		c0,0,0,0,0,0c0,0,0,0,0,0c0.14,0,0.29-0.06,0.46-0.2c0,0,0,0,0.01-0.01l0,0C8.23,33.25,7.06,32.24,5.78,31.68"/>
	<path class="st7" d="M18.53,12.12L18,12.25c0.17,0.87,0.43,1.73,0.77,2.58c0.06,0.16,0.29,0.25,0.44,0.37
		c0.01-0.15,0.07-0.32,0.07-0.46c0-0.05-0.01-0.1-0.02-0.14C18.93,13.78,18.68,12.95,18.53,12.12"/>
	<path class="st7" d="M15.03,15.92l-0.48,0.83l-0.1,0.17c0.23,0.21,0.47,0.42,0.72,0.62l0,0l0,0c-0.34-0.01-0.67-0.08-1.01-0.12
		l-0.51,0.87c0.88-0.13,1.94,0.21,2.55-1C15.81,16.82,15.43,16.36,15.03,15.92"/>
	<path class="st7" d="M9.71,24.97l-0.79,1.34c0.08,0.01,0.17,0.01,0.25,0.02l0,0c0.01,0,0.02,0,0.03,0c0,0,0,0,0,0
		c0.02,0,0.04,0,0.06,0c0.01,0,0.02,0,0.03,0c0,0,0,0,0,0c0.01,0,0.01,0,0.02,0c0,0,0,0,0.01,0c0.01,0,0.01,0,0.02,0c0,0,0,0,0,0
		c0.01,0,0.01,0,0.02,0c0.01,0,0.02,0,0.03-0.01c0,0,0,0,0,0c0,0,0,0,0,0c0.19-0.04,0.39-0.12,0.39-0.16c0,0,0,0,0,0
		C9.79,25.76,9.78,25.36,9.71,24.97"/>
	<path class="st7" d="M21.66,11.36l-2.81,0.68c0.13,0.68,0.33,1.35,0.57,2.01c0,0,0,0,0,0c0,0,0,0,0,0.01c0,0,0,0,0,0c0,0,0,0,0,0
		c0,0,0,0,0,0c0.15,0.38,0.33,0.6,0.6,0.6c0,0,0,0,0,0c0,0,0,0,0,0c0.14,0,0.3-0.05,0.49-0.16c0,0,0,0,0,0c0,0,0,0,0,0c0,0,0,0,0,0
		l0,0c0.4-0.23,0.83-0.44,1.27-0.61c0.28-0.11,0.42-0.24,0.42-0.46c0-0.09-0.03-0.2-0.08-0.33C21.91,12.53,21.75,11.95,21.66,11.36"
		/>
	<path class="st7" d="M10.7,23.29l-0.74,1.27c0.05,0.13,0.09,0.26,0.12,0.39c0.15,0.65,0.23,1.3,0.23,1.92
		c0,1.66-0.54,3.22-1.64,4.66c-0.24,0.31-0.44,0.64-0.44,1.04c0,0.21,0.06,0.44,0.19,0.69c0.22-0.17,0.36-0.26,0.48-0.38
		c0.19-0.19,0.39-0.38,0.55-0.6c1.28-1.73,1.93-3.55,1.93-5.49c0-0.99-0.17-2.01-0.52-3.06C10.82,23.57,10.77,23.43,10.7,23.29"/>
	<polyline class="st8" points="10.7,23.29 9.96,24.55 9.96,24.55 10.7,23.29 10.7,23.29 	"/>
	<path class="st7" d="M17.66,26.29C17.66,26.29,17.66,26.29,17.66,26.29c-0.01,0-0.01,0-0.02,0c0,0,0,0,0,0
		c-1.79,0.14-3.58,0.3-5.37,0.47c-0.19,0.02-0.37,0.18-0.56,0.27c0.03,0.09,0.06,0.17,0.09,0.26l0,0c0.55,0.06,1.1,0.09,1.64,0.09
		c0,0,0,0,0,0c0,0,0,0,0,0c1.43,0,2.85-0.18,4.27-0.44c0,0,0,0,0,0c0.02,0,0.04-0.01,0.06-0.01c0.01,0,0.02,0,0.03-0.01l0,0
		c0.14-0.03,0.25-0.25,0.37-0.39l0,0c0,0,0,0,0,0c0,0-0.01,0-0.01,0c0,0,0,0,0,0c0,0,0,0,0,0c0,0-0.01,0-0.01,0c0,0,0,0,0,0
		c-0.01,0-0.01-0.01-0.02-0.01c0,0,0,0,0,0c0,0,0,0,0,0c0,0-0.01,0-0.01,0c0,0,0,0,0,0c0,0,0,0,0,0c0,0,0,0,0,0c0,0,0,0,0,0
		c0,0,0,0,0,0l0,0c0,0,0,0,0,0c0,0,0,0-0.01,0c0,0,0,0,0,0c0,0,0,0,0,0c0,0,0,0,0,0c0,0-0.01,0-0.01,0c0,0,0,0-0.01,0
		C17.93,26.38,17.79,26.29,17.66,26.29C17.66,26.29,17.66,26.29,17.66,26.29"/>
	<path class="st7" d="M17.3,23.52C17.3,23.52,17.3,23.52,17.3,23.52c-0.01,0-0.02,0-0.02,0l0,0c-1.77,0.18-3.53,0.4-5.3,0.63
		c-0.19,0.02-0.36,0.15-0.54,0.23c0.1,0.55,0.2,0.98,0.25,1.42l0,0c0.04,0.4,0.24,0.62,0.59,0.62c0,0,0,0,0,0c0,0,0,0,0,0
		c0.03,0,0.05,0,0.08,0c0,0,0,0,0,0c0,0,0,0,0,0c1.79-0.18,3.58-0.36,5.37-0.59c0.15-0.02,0.37-0.36,0.37-0.55c0,0,0-0.01,0-0.01
		c-0.02-0.46-0.11-0.94-0.27-1.38l0,0c0,0,0,0,0,0c0,0,0,0,0,0c0,0,0,0,0,0c0,0,0,0,0,0c0,0,0,0,0,0c-0.06-0.16-0.33-0.34-0.51-0.36
		C17.32,23.52,17.31,23.52,17.3,23.52"/>
	<path class="st7" d="M16.44,18.01C16.44,18.01,16.44,18.01,16.44,18.01c-0.14,0-0.28,0.02-0.33,0.08c0,0,0,0,0,0
		c-0.71,0.74-1.43,1.5-2.04,2.33c-0.47,0.64-0.78,1.4-1.16,2.1c0.06,0.08,0.11,0.16,0.17,0.24c0.34-0.11,0.79-0.12,0.99-0.35
		c0.97-1.13,1.9-2.31,2.79-3.51c0.04-0.05,0.06-0.13,0.06-0.23c0-0.19-0.07-0.42-0.15-0.58C16.73,18.03,16.59,18.01,16.44,18.01
		C16.44,18.01,16.44,18.01,16.44,18.01"/>
	<path class="st7" d="M16.92,22.51C16.92,22.51,16.92,22.51,16.92,22.51c-0.02,0-0.05,0-0.07,0l0,0c-1.05,0.14-2.09,0.36-3.14,0.5
		c-0.85,0.11-1.7,0.15-2.55,0.21c-0.03,0.09-0.06,0.17-0.08,0.26c0.23,0.11,0.46,0.3,0.7,0.31l0,0c0.09,0,0.17,0.01,0.26,0.01
		c0,0,0,0,0,0c0,0,0,0,0,0c0.39,0,0.77-0.04,1.16-0.09c0.02,0,0.04,0,0.05-0.01l0,0c1.43-0.18,2.86-0.39,4.29-0.59
		c0.02-0.15,0.03-0.29,0.05-0.44l0,0c0,0-0.01,0-0.01,0c0,0,0,0,0,0c0,0,0,0,0,0c0,0,0,0,0,0c0,0,0,0,0,0c0,0-0.01,0-0.01,0
		c-0.01,0-0.02,0-0.03-0.01c0,0,0,0-0.01,0c0,0,0,0,0,0c-0.01,0-0.01,0-0.02,0c-0.03-0.01-0.05-0.02-0.08-0.02
		C17.26,22.58,17.08,22.51,16.92,22.51C16.92,22.51,16.92,22.51,16.92,22.51"/>
	<path class="st7" d="M7.35,34.23c-0.07,0.03-0.14,0.06-0.21,0.09c-0.02,0.13-0.02,0.25-0.02,0.38c0,0.39,0.08,0.78,0.21,1.15l0,0
		l0,0l0.57-0.43C7.7,35.02,7.54,34.61,7.35,34.23"/>
	<path class="st7" d="M23.09,15.36C23.09,15.36,23.09,15.36,23.09,15.36c-0.02,0-0.05,0-0.07,0.01l0,0
		c-0.78,0.17-1.49,0.65-2.33,1.06c0.32,0.36,0.52,0.59,0.74,0.82c0,0,0.01,0.01,0.01,0.01c0.74,0.78,1.15,1.19,1.48,1.19
		c0,0,0,0,0,0c0,0,0,0,0,0c0.37,0,0.65-0.5,1.21-1.54c0-0.01,0.01-0.02,0.01-0.02c0,0,0-0.01,0.01-0.01c0,0,0-0.01,0.01-0.01l0,0
		c0.07-0.13,0.12-0.35,0.12-0.51c0-0.09-0.02-0.16-0.05-0.19c0,0-0.01-0.01-0.01-0.01c0,0,0,0,0,0c0,0,0,0,0,0c0,0,0,0,0,0
		c-0.01-0.01-0.02-0.02-0.03-0.03c0,0,0,0,0,0c0,0,0,0-0.01,0c0,0,0,0,0,0C23.84,15.79,23.4,15.36,23.09,15.36
		C23.09,15.36,23.09,15.36,23.09,15.36"/>
	<path class="st7" d="M25.67,12.96c-0.14,0.19-0.37,0.36-0.41,0.57c-0.1,0.58-0.03,1.2-0.18,1.76c-0.79,2.85-2.56,4.9-5.16,6.27
		c-0.19,0.1-0.28,0.37-0.41,0.56c0,0,0,0,0,0c0,0,0.01,0,0.01,0c0,0,0,0,0,0c0,0,0,0,0,0c0,0,0.01,0,0.01,0c0,0,0,0,0,0
		c0.07,0.01,0.15,0.03,0.23,0.05c0.11,0.03,0.22,0.05,0.32,0.05c0,0,0,0,0,0c0,0,0,0,0,0c0.06,0,0.11-0.01,0.16-0.03c0,0,0,0,0,0
		l0,0c3.12-1.4,4.92-3.84,5.62-7.25c0.03-0.36,0.08-0.8,0.08-1.25c0-0.04,0-0.09,0-0.13C25.95,13.36,25.77,13.16,25.67,12.96"/>
	<path class="st7" d="M24.67,13.41c-0.18,0.02-0.28,0.02-0.38,0.04c-2.12,0.49-4.01,1.47-5.79,2.69c-0.08,0.06-0.12,0.24-0.12,0.42
		c0,0.11,0.02,0.22,0.05,0.3c0,0,0,0,0,0c0,0,0,0,0,0.01c0,0,0,0,0,0v0c0,0,0,0,0,0c0.08,0.2,0.21,0.29,0.37,0.29c0,0,0,0,0,0
		c0,0,0,0,0,0c0.12,0,0.26-0.05,0.41-0.15c0,0,0,0,0,0l0,0c0.79-0.5,1.57-1.03,2.4-1.44c0.9-0.44,1.88-0.73,2.8-1.14
		c0.21-0.1,0.35-0.42,0.45-0.66c0-0.01,0.01-0.02,0.01-0.03C24.86,13.66,24.72,13.51,24.67,13.41"/>
	<path class="st7" d="M28.17,11.19c-0.4,0.36-0.77,0.78-1.22,1.06c-0.45,0.28-0.64,0.56-0.66,1.11c-0.05,1.4-0.25,2.79-0.83,4.1
		c-1.04,2.38-2.84,3.99-5.1,5.17c-0.22,0.11-0.5,0.4-0.5,0.6c0,0,0,0.01,0,0.01c0.03,0.6,0.19,1.2,0.3,1.8
		c3.64-0.61,8.26-5.57,8.26-11.44C28.43,12.81,28.35,12,28.17,11.19"/>
	<path class="st7" d="M20.37,16.84C20.37,16.84,20.37,16.84,20.37,16.84c-0.05,0-0.1,0.01-0.12,0.03c0,0,0,0,0,0c0,0,0,0,0,0l0,0
		c-0.04,0.03-0.07,0.14-0.07,0.22c0,0.04,0.01,0.08,0.02,0.1c0.63,0.68,1.27,1.36,1.94,2.01l0,0c0.01,0.01,0.03,0.02,0.06,0.02
		c0,0,0,0,0,0c0.09,0,0.24-0.06,0.39-0.1c0,0,0,0,0,0c0,0,0.01,0,0.01,0c0,0,0,0,0.01,0c0,0,0,0,0,0c0,0,0,0,0.01,0c0,0,0,0,0,0
		c0,0,0,0,0,0c-0.09-0.17-0.11-0.27-0.18-0.33c-0.62-0.63-1.25-1.26-1.89-1.88C20.53,16.86,20.44,16.84,20.37,16.84
		C20.37,16.84,20.37,16.84,20.37,16.84"/>
	<path class="st7" d="M15.82,14.57l-0.53,0.91l-0.08,0.13c0.01,0.02,0.03,0.03,0.04,0.05c0.85,0.93,1.66,1.89,2.4,2.91
		c0.53,0.74,0.9,1.59,1.38,2.37c0,0,0.01,0.01,0.01,0.01c0,0,0,0,0,0c0,0,0,0,0,0c0.1,0.15,0.34,0.29,0.51,0.29c0,0,0,0,0,0
		c0,0,0,0,0,0c0.01,0,0.02,0,0.03,0c0,0,0,0,0,0l0,0c0.23-0.03,0.43-0.25,0.65-0.39c-0.12-0.29-0.19-0.51-0.29-0.7
		c-1-2.01-2.31-3.79-3.9-5.37C15.97,14.71,15.9,14.63,15.82,14.57"/>
	<path class="st7" d="M13.03,27.76c-0.01,0.16-0.06,0.35-0.06,0.51c0,0.07,0.01,0.14,0.04,0.2c0.37,0.64,0.78,1.26,1.23,1.84
		c0.05,0.06,0.1,0.12,0.15,0.17l0,0l0,0l0.91-0.69c-0.45-0.61-0.89-1.21-1.36-1.76C13.77,27.81,13.34,27.83,13.03,27.76"/>
	<path class="st7" d="M28.91,10.67c-0.04,0.25-0.12,0.49-0.12,0.74c0,0.01,0,0.03,0,0.04c0.02,0.44,0.14,0.87,0.14,1.31
		c0,0.01,0,0.01,0,0.02c-0.02,3.63-1.08,6.68-3.24,9.11l1.92-1.46l0,0c1.27-2.07,1.95-4.49,2.01-7.3c0-0.03,0-0.06,0-0.09
		c0-0.78-0.21-1.57-0.32-2.35C29.17,10.67,29.04,10.67,28.91,10.67"/>
	<path class="st7" d="M17.23,19.19C17.23,19.19,17.23,19.19,17.23,19.19c-0.02,0-0.03,0-0.05,0.01l0,0
		c-0.28,0.1-0.43,0.31-0.43,0.57c0,0.12,0.03,0.26,0.1,0.4c0.24,0.49,0.52,0.97,0.66,1.49c0.46,1.7,0.87,3.42,1.33,5.26
		c0.07,0.01,0.13,0.01,0.19,0.02l0,0l0,0l0.84-0.64c0-0.02,0-0.04,0-0.06c-0.18-2.35-0.7-4.6-2.01-6.59l0,0c0,0,0,0,0-0.01
		c0,0,0,0,0,0c0,0,0,0,0,0c0,0,0-0.01-0.01-0.01c0,0,0,0,0,0c-0.08-0.11-0.2-0.22-0.33-0.31c0,0,0,0,0,0c0,0,0,0,0,0
		c-0.1-0.07-0.19-0.11-0.27-0.12c0,0,0,0,0,0C17.24,19.19,17.23,19.19,17.23,19.19"/>
	<path class="st7" d="M13.63,29.71c-0.6,0.51-0.81,0.76-0.81,1.01c0,0.1,0.03,0.19,0.09,0.31c0.06,0.13,0.15,0.26,0.25,0.38
		l0.82-0.63c-0.04-0.08-0.07-0.17-0.1-0.27C13.82,30.25,13.72,30,13.63,29.71"/>
	<path class="st6" d="M15.93,29.13C15.92,29.13,15.92,29.13,15.93,29.13C15.92,29.13,15.92,29.13,15.93,29.13"/>
	<path class="st6" d="M46.94,5.25L46.32,5.4l-1.5,0.36l-1.78,0.43c0.37,0.54,0.73,1.1,1.08,1.66l0.53-0.4l0.69-0.53l1.04-0.79
		l1.44-1.09L46.94,5.25"/>
	<path class="st7" d="M22.56,11.14l-0.58,0.14c0.15,1.01,0.51,1.88,1,2.06c0.02-0.06,0.08-0.13,0.08-0.17c0-0.01,0-0.01,0-0.02
		C22.81,12.49,22.64,11.82,22.56,11.14L22.56,11.14L22.56,11.14"/>
	<path class="st7" d="M41.98,6.45l-2.48,0.6c0.71,0.89,1.42,1.79,2.14,2.69l1.74-1.33C42.91,7.76,42.45,7.1,41.98,6.45L41.98,6.45
		L41.98,6.45"/>
	<path class="st7" d="M43.04,6.19l-0.61,0.15c0.42,0.61,0.83,1.23,1.24,1.85l0.44-0.33l0,0C43.78,7.29,43.42,6.74,43.04,6.19
		L43.04,6.19L43.04,6.19"/>
	<path class="st7" d="M29.8,18.66C29.8,18.66,29.8,18.66,29.8,18.66c-0.07,0-0.14,0-0.21,0c0,0-0.01,0-0.01,0c-0.01,0-0.02,0-0.03,0
		c-0.21,0.01-0.51,0.04-0.59,0.18c-0.21,0.33-0.41,0.66-0.61,1.01l1.57-1.19C29.88,18.66,29.84,18.66,29.8,18.66
		C29.8,18.66,29.8,18.66,29.8,18.66"/>
	<path class="st6" d="M29.92,18.66L29.92,18.66L29.92,18.66"/>
	<path class="st7" d="M28.1,9.81l-5.19,1.25c0.02,0.17,0.04,0.33,0.05,0.49c0.04,0.49,0.22,0.69,0.55,0.69c0,0,0,0,0,0c0,0,0,0,0,0
		c0.13,0,0.28-0.03,0.46-0.09l0,0C25.52,11.65,26.9,10.88,28.1,9.81"/>
	<path class="st7" d="M34.17,8.34L34.17,8.34L34.17,8.34l-0.28,0.07l0,0l0,0c-0.11,0.07-0.18,0.18-0.21,0.36c0,0.01,0,0.02,0,0.02
		c0,0.16,0.23,0.45,0.4,0.5c1.06,0.32,2.12,0.67,3.21,0.83c0.4,0.06,0.8,0.08,1.22,0.08l0,0c0,0,0,0,0,0c0.23,0,0.47-0.01,0.71-0.01
		c0,0,0.01,0,0.01,0c0,0,0.01,0,0.01,0c0,0,0.01,0,0.01,0c0.01,0,0.01,0,0.02,0l0,0c0.03,0,0.06,0,0.09,0
		c0.23-0.01,0.46-0.01,0.7-0.01c0,0,0,0,0,0l0,0l0,0c0,0,0,0,0,0c0.05,0,0.1,0,0.15,0l0,0c0,0,0-0.01,0-0.01
		c0-0.01,0-0.02-0.01-0.02c-0.17-0.69-0.38-1.02-0.86-1.02c0,0,0,0,0,0c0,0,0,0,0,0c-0.1,0-0.21,0.01-0.33,0.04l0,0
		c0,0-0.01,0-0.01,0c-0.2,0.04-0.41,0.06-0.62,0.06c0,0,0,0,0,0l0,0l0,0c0,0,0,0,0,0c-0.27,0-0.54-0.03-0.8-0.08c0,0-0.01,0-0.01,0
		c0,0,0,0,0,0c0,0,0,0,0,0c0,0-0.01,0-0.01,0c0,0-0.01,0-0.01,0c-1.04-0.21-2.06-0.47-3.08-0.75C34.36,8.36,34.26,8.34,34.17,8.34
		L34.17,8.34L34.17,8.34"/>
	<path class="st6" d="M40.21,10.17L40.21,10.17L40.21,10.17L40.21,10.17 M40.06,10.17L40.06,10.17
		C40.06,10.17,40.06,10.17,40.06,10.17C40.06,10.17,40.06,10.17,40.06,10.17 M40.2,10.14c0,0.01,0,0.02,0.01,0.02
		C40.2,10.16,40.2,10.15,40.2,10.14 M37.57,9.14c0,0,0.01,0,0.01,0C37.58,9.15,37.57,9.14,37.57,9.14 M37.57,9.14
		C37.57,9.14,37.57,9.14,37.57,9.14C37.57,9.14,37.57,9.14,37.57,9.14"/>
	<path class="st7" d="M33.82,9.61C33.82,9.61,33.82,9.61,33.82,9.61c-0.38,0-0.52,0.28-0.63,0.6c0,0.01,0,0.01-0.01,0.02v0
		c0,0,0,0,0,0.01l0,0c-0.42,1.28-0.61,2.57-0.61,3.87c0,0.79,0.07,1.59,0.19,2.4l1.04-0.79c-0.05-1.44-0.09-2.9-0.14-4.51l0,0l0,0
		c0.39,0.66,0.61,1.2,0.98,1.59l0,0c0,0,0,0,0,0c0.11,0.11,0.35,0.17,0.58,0.17c0,0,0,0,0,0c0,0,0,0,0,0c0.14,0,0.28-0.03,0.36-0.08
		l0,0c0.13-0.09,0.18-0.18,0.18-0.28c0-0.18-0.16-0.38-0.3-0.59c-0.34-0.49-0.62-1.04-0.8-1.6c-0.13-0.41-0.23-0.74-0.71-0.81l0,0
		c0,0,0,0,0,0c0,0,0,0,0,0C33.9,9.61,33.86,9.61,33.82,9.61C33.82,9.61,33.82,9.61,33.82,9.61"/>
	<path class="st7" d="M31.55,14.66C31.55,14.66,31.55,14.66,31.55,14.66c-0.42,0-0.55,0.23-0.52,0.59c0,0,0,0,0,0c0,0,0,0.01,0,0.01
		l0,0c0.07,0.78,0.14,1.56,0.3,2.32l0.23-0.18l0.99-0.76c-0.1-0.42-0.2-0.83-0.31-1.24c-0.08-0.29-0.26-0.55-0.33-0.7l0,0
		C31.78,14.68,31.66,14.66,31.55,14.66C31.55,14.66,31.55,14.66,31.55,14.66"/>
	<path class="st7" d="M34.6,14.09C34.6,14.09,34.6,14.09,34.6,14.09c-0.21,0-0.48,0.09-0.54,0.2c0,0,0,0,0,0c0,0,0,0,0,0
		c0,0,0,0,0,0c0,0,0,0,0,0c0,0,0,0,0,0l0,0c-0.05,0.1-0.07,0.18-0.07,0.26c0,0.25,0.21,0.41,0.52,0.57
		c0.01,0.01,0.02,0.01,0.04,0.02l0.5-0.38l0.5-0.38c-0.26-0.1-0.53-0.19-0.8-0.27c0,0,0,0,0,0c0,0,0,0,0,0c0,0,0,0,0,0
		C34.7,14.1,34.65,14.09,34.6,14.09C34.6,14.09,34.6,14.09,34.6,14.09"/>
	<path class="st7" d="M39.22,7.12l-0.63,0.15c0.52,0.62,1.03,1.24,1.52,1.88c0.28,0.37,0.54,0.76,0.78,1.16l0.36-0.27
		C40.59,9.05,39.92,8.08,39.22,7.12L39.22,7.12L39.22,7.12"/>
	<g>
		<path class="st9" d="M4.52,9.23C4.49,9.22,4.45,9.21,4.42,9.19C4.45,9.21,4.49,9.22,4.52,9.23z"/>
		<path class="st4" d="M2.76,7.61L1.94,7.33L1.84,7.3l0.22,0.16l1.05,0.78l1.25,0.93C4.38,9.18,4.4,9.19,4.42,9.19
			c0.04,0.01,0.07,0.03,0.11,0.04c0.02,0.01,0.04,0.01,0.06,0.02c0.03,0.01,0.06,0.02,0.09,0.03c0.02,0,0.04,0.01,0.05,0.01
			C4.76,9.3,4.79,9.3,4.82,9.31c0.02,0,0.03,0.01,0.05,0.01c0.03,0,0.06,0.01,0.09,0.01c0.01,0,0.03,0,0.04,0c0.01,0,0.01,0,0.02,0
			c0.03,0,0.05,0,0.07-0.01c0.01,0,0.02,0,0.03,0c0.02,0,0.04-0.01,0.06-0.02c0.01,0,0.01,0,0.02-0.01
			c0.03-0.01,0.05-0.02,0.07-0.04C4.3,8.84,3.47,8.29,2.76,7.61z"/>
		<path class="st6" d="M4.38,9.18C4.38,9.18,4.38,9.18,4.38,9.18C4.39,9.19,4.4,9.19,4.42,9.19C4.4,9.19,4.38,9.18,4.36,9.17l0,0
			C4.36,9.17,4.37,9.18,4.38,9.18z"/>
	</g>
	<g>
		<path class="st2" d="M14.64,11.66c-0.13,0.25-0.22,0.52-0.24,0.83c0,0.01,0,0.03,0,0.04c0,0.01,0,0.01,0,0.02
			c0,0.02,0,0.04,0,0.06c0,0,0,0,0,0c0,0.02,0,0.03,0,0.05c0,0.01,0,0.01,0,0.02c0,0.01,0,0.02,0,0.03c0,0.01,0,0.01,0,0.02
			c0,0.01,0,0.02,0,0.03c0,0.01,0,0.01,0,0.02c0,0.01,0,0.02,0.01,0.03c0,0.01,0,0.01,0,0.02c0,0.01,0.01,0.02,0.01,0.03
			c0,0,0,0.01,0.01,0.01c0,0.01,0.01,0.02,0.01,0.03c0,0,0,0.01,0.01,0.01c0.01,0.01,0.02,0.02,0.02,0.03c0,0,0,0,0.01,0.01
			c0.01,0.01,0.02,0.02,0.02,0.02c0,0,0.01,0.01,0.01,0.01c0.01,0.01,0.02,0.01,0.02,0.02c0.01,0,0.01,0.01,0.02,0.01
			c0.01,0,0.02,0.01,0.03,0.01c0.01,0,0.01,0,0.02,0.01c0.01,0,0.02,0,0.03,0.01c0.01,0,0.01,0,0.02,0c0.01,0,0.03,0,0.04,0
			c0.01,0,0.01,0,0.02,0c0.01,0,0.03,0,0.05,0c0.01,0,0.02,0,0.02,0c0.02,0,0.05-0.01,0.08-0.01c0.01,0,0.02,0,0.03,0c0,0,0,0,0,0
			c0,0,0.01,0,0.01,0c0,0,0,0,0,0c0,0,0.01,0,0.01,0c0.01,0,0.02,0,0.03,0c0.01,0,0.01,0,0.02,0c0.01,0,0.02,0.01,0.03,0.01
			c0.01,0,0.01,0,0.02,0.01c0.01,0,0.02,0.01,0.03,0.01c0.01,0,0.01,0.01,0.02,0.01c0.01,0.01,0.02,0.01,0.03,0.02
			c0.01,0,0.01,0.01,0.02,0.01c0.01,0.01,0.02,0.01,0.03,0.02c0,0,0.01,0.01,0.01,0.01c0.01,0.01,0.02,0.02,0.04,0.03
			c0,0,0,0.01,0.01,0.01c0.01,0.01,0.01,0.02,0.02,0.02c0,0,0,0,0,0c0,0,0,0,0,0c0,0,0,0,0,0c0.01,0.01,0.01,0.02,0.02,0.04
			c0,0,0,0.01,0,0.02c0,0.01,0,0.02,0,0.04c0,0,0,0.01,0,0.01c0,0,0,0.01,0,0.01c0,0.02,0,0.03,0,0.05c0,0,0,0.01,0,0.01
			c0,0.02-0.01,0.04-0.01,0.06c0,0.01,0,0.01-0.01,0.01c-0.01,0.01-0.01,0.03-0.02,0.04c0,0,0,0.01-0.01,0.01
			c-0.01,0.02-0.02,0.03-0.03,0.04c0,0,0,0-0.01,0.01c0,0,0,0,0,0c0,0,0,0,0,0c0,0,0,0,0,0c0,0,0,0,0,0c0,0,0,0,0,0
			c-0.01,0-0.01,0.01-0.02,0.01c0,0-0.01,0.01-0.01,0.01c-0.01,0.01-0.03,0.02-0.04,0.03c0,0,0,0,0,0
			c-0.02,0.01-0.03,0.02-0.05,0.03c-0.01,0-0.01,0.01-0.02,0.01c-0.01,0.01-0.02,0.01-0.04,0.02c-0.01,0-0.01,0.01-0.02,0.01
			c-0.01,0-0.02,0.01-0.03,0.01c-0.01,0-0.01,0-0.02,0.01c-0.01,0-0.03,0.01-0.04,0.01c0,0-0.01,0-0.01,0c-0.02,0-0.03,0-0.04,0
			c0,0,0,0,0,0c0,0,0,0,0,0c0,0,0,0,0,0c-0.01,0-0.02,0-0.03,0c-0.01,0-0.01,0-0.02,0c0,0,0,0,0,0c-0.38-0.1-0.57-0.39-0.64-0.78
			c-0.01-0.07-0.02-0.14-0.03-0.21c0-0.02,0-0.04,0-0.07c0-0.05-0.01-0.1-0.01-0.15c0-0.01,0-0.02,0-0.04c0-0.01,0-0.02,0-0.03
			c0-0.06,0-0.12,0.01-0.18c0-0.01,0-0.02,0-0.04c0.01-0.07,0.02-0.14,0.03-0.21c0-0.02,0.01-0.04,0.01-0.05
			c0.01-0.05,0.02-0.11,0.04-0.16c0-0.02,0.01-0.04,0.02-0.06c0.02-0.07,0.04-0.13,0.06-0.2l-0.97-0.33
			c-0.03,0.6,0.05,1.2,0.23,1.81c0.23,0.81,0.37,1.65,0.48,2.48C14,15.74,13.97,16,13.9,16.27l0.64,0.48l2.51-4.27L14.64,11.66z"/>
		<path class="st4" d="M14.16,11.78c-0.01,0.05-0.03,0.1-0.04,0.16c0,0.02-0.01,0.04-0.01,0.05c-0.01,0.07-0.02,0.14-0.03,0.21
			c0,0.01,0,0.02,0,0.04c0,0.06-0.01,0.12-0.01,0.18c0,0.02,0,0.05,0,0.07c0,0.05,0,0.1,0.01,0.15c0,0.02,0,0.04,0,0.07
			c0.01,0.07,0.01,0.14,0.03,0.21c0.06,0.39,0.26,0.68,0.64,0.78c0.01,0,0.01,0,0.02,0c0.01,0,0.02,0,0.03,0c0.02,0,0.03,0,0.05,0
			c0,0,0.01,0,0.01,0c0.01,0,0.03-0.01,0.04-0.01c0.01,0,0.01,0,0.02-0.01c0.01,0,0.02-0.01,0.03-0.01c0.01,0,0.01-0.01,0.02-0.01
			c0.01-0.01,0.02-0.01,0.04-0.02c0.01,0,0.01-0.01,0.02-0.01c0.02-0.01,0.03-0.02,0.05-0.03c0,0,0,0,0,0
			c0.02-0.01,0.03-0.02,0.04-0.03c0,0,0.01-0.01,0.01-0.01c0.01-0.01,0.02-0.02,0.03-0.03c0.01-0.01,0.02-0.02,0.03-0.04
			c0,0,0.01-0.01,0.01-0.01c0.01-0.01,0.01-0.03,0.02-0.04c0-0.01,0-0.01,0.01-0.01c0.01-0.02,0.01-0.04,0.01-0.06
			c0,0,0-0.01,0-0.01c0-0.02,0-0.03,0-0.05c0-0.01,0-0.01,0-0.02c0-0.01,0-0.02,0-0.04c0-0.01,0-0.01,0-0.02
			c0-0.02-0.01-0.03-0.02-0.04c-0.01-0.01-0.01-0.02-0.02-0.03c0,0,0-0.01-0.01-0.01c-0.01-0.01-0.02-0.02-0.04-0.03
			c0,0-0.01-0.01-0.01-0.01c-0.01-0.01-0.02-0.02-0.03-0.02c-0.01,0-0.01-0.01-0.02-0.01c-0.01-0.01-0.02-0.01-0.03-0.02
			c-0.01,0-0.01-0.01-0.02-0.01c-0.01,0-0.02-0.01-0.03-0.01c-0.01,0-0.01-0.01-0.02-0.01c-0.01,0-0.02-0.01-0.03-0.01
			c-0.01,0-0.01,0-0.02,0c-0.01,0-0.02,0-0.03,0c0,0-0.01,0-0.01,0c-0.01,0-0.03,0-0.04,0c-0.03,0-0.05,0.01-0.08,0.01
			c-0.01,0-0.02,0-0.02,0c-0.01,0-0.03,0-0.04,0c0,0,0,0,0,0c0,0,0,0,0,0c0,0,0,0-0.01,0c-0.01,0-0.01,0-0.02,0
			c-0.01,0-0.03,0-0.04,0c-0.01,0-0.01,0-0.02,0c-0.01,0-0.02,0-0.03-0.01c-0.01,0-0.01,0-0.02-0.01c-0.01,0-0.02-0.01-0.03-0.01
			c-0.01,0-0.01,0-0.02-0.01c-0.01,0-0.02-0.01-0.02-0.02c0,0-0.01-0.01-0.01-0.01c-0.01-0.01-0.02-0.01-0.02-0.02
			c0,0,0,0-0.01-0.01c-0.01-0.01-0.02-0.02-0.02-0.03c0,0,0-0.01-0.01-0.01c0-0.01-0.01-0.02-0.01-0.03c0,0,0-0.01-0.01-0.01
			c0-0.01-0.01-0.02-0.01-0.03c0-0.01,0-0.01,0-0.02c0-0.01,0-0.02-0.01-0.03c0-0.01,0-0.01,0-0.02c0-0.01,0-0.02,0-0.03
			c0-0.01,0-0.01,0-0.02c0-0.01,0-0.02,0-0.03c0-0.01,0-0.01,0-0.02c0-0.02,0-0.03,0-0.05c0,0,0,0,0,0c0-0.02,0-0.04,0-0.06
			c0-0.01,0-0.01,0-0.02c0-0.01,0-0.02,0-0.03c0-0.01,0-0.01,0-0.02c0.02-0.3,0.11-0.58,0.24-0.83l-0.41-0.14
			c-0.02,0.07-0.04,0.13-0.06,0.2C14.17,11.74,14.16,11.76,14.16,11.78z"/>
		<path class="st6" d="M14.07,12.45c0,0.01,0,0.02,0,0.04c0-0.02,0-0.05,0-0.07C14.07,12.42,14.07,12.43,14.07,12.45z"/>
	</g>
	<g>
		<path class="st2" d="M5.55,8.56C5.54,8.59,5.52,8.62,5.51,8.65c0,0.01-0.01,0.02-0.01,0.02C5.5,8.69,5.49,8.71,5.48,8.73
			c0,0.01-0.01,0.02-0.01,0.02C5.46,8.76,5.46,8.78,5.45,8.79c0,0.01-0.01,0.01-0.01,0.02C5.43,8.82,5.42,8.83,5.41,8.84
			C5.41,8.85,5.4,8.85,5.4,8.86C5.39,8.87,5.38,8.88,5.38,8.88C5.37,8.89,5.36,8.89,5.36,8.9C5.35,8.9,5.34,8.91,5.33,8.91
			c-0.01,0-0.01,0.01-0.02,0.01c-0.01,0-0.02,0.01-0.03,0.01c-0.01,0-0.02,0-0.03,0c-0.01,0-0.02,0-0.03,0c0,0,0,0,0,0c0,0,0,0,0,0
			c0,0,0,0,0,0c0,0-0.01,0-0.02,0c-0.01,0-0.03,0-0.05-0.01c-0.01,0-0.02,0-0.03-0.01c-0.01,0-0.03-0.01-0.04-0.01
			c-0.01,0-0.02-0.01-0.03-0.01C5.05,8.89,5.03,8.89,5.02,8.88C5,8.88,4.99,8.87,4.98,8.87C4.96,8.86,4.94,8.85,4.92,8.84
			C4.91,8.84,4.9,8.83,4.88,8.82C4.86,8.81,4.84,8.8,4.82,8.79C4.8,8.78,4.79,8.78,4.78,8.77C4.75,8.76,4.72,8.74,4.7,8.73
			C4.68,8.72,4.67,8.71,4.65,8.7C4.62,8.68,4.58,8.66,4.54,8.64c-0.01,0-0.01-0.01-0.02-0.01c0,0,0,0,0,0c0,0,0,0,0,0
			c-0.01,0-0.01-0.01-0.02-0.01c0,0,0,0-0.01,0c0,0,0,0,0,0c0,0,0,0,0,0c0,0-0.01,0-0.01-0.01c0,0,0,0,0,0c0,0-0.01,0-0.01-0.01
			c0,0,0,0,0,0c0,0,0,0-0.01,0c-0.01,0-0.01-0.01-0.02-0.01c0,0,0,0,0,0c-0.01,0-0.01-0.01-0.02-0.01c0,0-0.01,0-0.01-0.01
			c0,0,0,0-0.01,0c0,0,0,0,0,0c0,0,0,0,0,0C4.39,8.56,4.38,8.55,4.37,8.55c0,0,0,0,0,0c0,0,0,0-0.01,0
			C3.97,8.32,3.62,8.07,3.29,7.79L2.76,7.61C3.47,8.29,4.3,8.84,5.27,9.25c0,0-0.01,0-0.01,0.01C5.24,9.27,5.22,9.28,5.19,9.29
			c-0.01,0-0.01,0-0.02,0.01C5.15,9.3,5.13,9.31,5.11,9.31c-0.01,0-0.02,0-0.03,0c-0.02,0-0.05,0.01-0.07,0.01
			c-0.01,0-0.01,0-0.02,0c0,0,0,0-0.01,0c0,0,0,0,0,0c0,0,0,0,0,0c-0.01,0-0.02,0-0.03,0c-0.03,0-0.06,0-0.09-0.01
			c-0.02,0-0.03,0-0.05-0.01c-0.03,0-0.06-0.01-0.09-0.02c-0.02,0-0.04-0.01-0.05-0.01C4.64,9.27,4.61,9.26,4.58,9.25
			C4.56,9.25,4.54,9.24,4.52,9.23C4.49,9.22,4.45,9.21,4.42,9.19c-0.01,0-0.02-0.01-0.04-0.01c0,0,0,0,0,0
			c-0.01,0-0.01-0.01-0.02-0.01c0,0,0,0,0,0l1,0.74l0,0c0.07-0.35,0.21-0.8,0.38-1.28L5.55,8.56z"/>
		<path class="st4" d="M4.52,8.63c0.01,0,0.01,0.01,0.02,0.01C4.58,8.66,4.62,8.68,4.65,8.7C4.67,8.71,4.68,8.72,4.7,8.73
			c0.03,0.01,0.05,0.03,0.08,0.04C4.79,8.78,4.8,8.78,4.82,8.79C4.84,8.8,4.86,8.81,4.88,8.82C4.9,8.83,4.91,8.84,4.92,8.84
			c0.02,0.01,0.04,0.02,0.05,0.02C4.99,8.87,5,8.88,5.02,8.88C5.03,8.89,5.05,8.89,5.06,8.9c0.01,0,0.02,0.01,0.03,0.01
			c0.02,0,0.03,0.01,0.04,0.01c0.01,0,0.02,0,0.03,0.01c0.02,0,0.03,0,0.05,0.01c0.01,0,0.01,0,0.02,0c0.01,0,0.02,0,0.03,0
			c0.01,0,0.02,0,0.03,0c0.01,0,0.02-0.01,0.03-0.01c0.01,0,0.01,0,0.02-0.01c0.01,0,0.02-0.01,0.02-0.02
			c0.01,0,0.01-0.01,0.02-0.01C5.38,8.88,5.39,8.87,5.4,8.86C5.4,8.85,5.41,8.85,5.41,8.84c0.01-0.01,0.01-0.02,0.02-0.03
			c0-0.01,0.01-0.01,0.01-0.02c0.01-0.01,0.01-0.03,0.02-0.04c0-0.01,0.01-0.02,0.01-0.02C5.49,8.71,5.5,8.69,5.5,8.67
			c0-0.01,0.01-0.02,0.01-0.02c0.01-0.03,0.02-0.06,0.03-0.09L3.29,7.79c0.33,0.28,0.69,0.53,1.08,0.75
			C4.42,8.57,4.47,8.6,4.52,8.63z"/>
	</g>
	<path class="st6" d="M40.11,9.15c-0.48-0.64-1-1.26-1.52-1.88l-4.43,1.07c0.09,0,0.19,0.02,0.3,0.05c1.02,0.28,2.04,0.55,3.08,0.75
		c0.47,0.09,1,0.13,1.46,0.02c0.73-0.17,0.99,0.16,1.2,1.01c-0.32,0-0.63,0-0.94,0.01c-0.69,0.02-1.34,0.03-1.98-0.06
		c-1.09-0.16-2.15-0.51-3.21-0.83c-0.18-0.05-0.42-0.37-0.4-0.53c0.03-0.18,0.1-0.29,0.21-0.36l-0.28,0.07
		c-0.26,0.54-0.51,1.09-0.75,1.65c-0.31,0.73-0.37,1.57-0.6,2.35c-0.06,0.19-0.38,0.5-0.44,0.47c-0.24-0.11-0.57-0.33-0.6-0.54
		c-0.05-0.37,0.1-0.77,0.16-1.16c0.16-0.82,0.39-1.62,0.68-2.4l-2.38,0.58c-0.83,1.1-2.47,2.4-3.99,3.08
		c-0.01,0.01-0.02,0.01-0.04,0.02c0,0,0,0,0,0c-0.01,0-0.01,0.01-0.02,0.01c-0.01,0.01-0.02,0.01-0.04,0.02
		c-0.01,0-0.01,0.01-0.02,0.01c-0.01,0-0.01,0-0.02,0.01c-0.03,0.01-0.05,0.02-0.08,0.03c-0.02,0.01-0.05,0.02-0.07,0.03
		c-0.02,0.01-0.05,0.02-0.07,0.03c-0.02,0.01-0.04,0.02-0.06,0.03c-0.02,0.01-0.05,0.02-0.07,0.03c-0.02,0.01-0.04,0.02-0.06,0.03
		c-0.02,0.01-0.04,0.02-0.07,0.03c-0.02,0.01-0.04,0.02-0.06,0.02c-0.02,0.01-0.04,0.02-0.06,0.03c-0.02,0.01-0.04,0.02-0.05,0.02
		c-0.02,0.01-0.04,0.02-0.06,0.02c-0.02,0.01-0.03,0.01-0.05,0.02c-0.02,0.01-0.04,0.01-0.06,0.02c-0.02,0.01-0.03,0.01-0.05,0.02
		c-0.02,0.01-0.04,0.01-0.05,0.02c-0.01,0.01-0.03,0.01-0.04,0.02c-0.02,0.01-0.03,0.01-0.05,0.02c-0.01,0-0.03,0.01-0.04,0.01
		C24.48,13,24.47,13,24.45,13.01c-0.01,0-0.03,0.01-0.04,0.01c-0.01,0-0.03,0.01-0.04,0.01c-0.01,0-0.03,0.01-0.04,0.01
		c-0.01,0-0.03,0.01-0.04,0.01c-0.01,0-0.02,0.01-0.04,0.01c-0.01,0-0.02,0.01-0.04,0.01c-0.01,0-0.02,0.01-0.03,0.01
		c-0.01,0-0.02,0-0.03,0.01c-0.01,0-0.02,0-0.03,0.01c-0.01,0-0.02,0-0.03,0c-0.01,0-0.02,0-0.03,0c-0.01,0-0.02,0-0.03,0
		c-0.01,0-0.02,0-0.03,0c0,0,0,0,0,0c0,0,0,0,0,0c-0.01,0-0.01,0-0.02,0c0,0,0,0,0,0c0,0-0.01,0-0.01,0c-0.03,0-0.06,0-0.08-0.01
		c0,0-0.01,0-0.01,0c-0.03,0-0.05-0.01-0.08-0.02c0,0,0,0,0,0c-0.02-0.01-0.05-0.02-0.07-0.03c0,0,0,0-0.01,0
		c-0.02-0.01-0.04-0.03-0.06-0.04c0,0-0.01,0-0.01-0.01c-0.02-0.02-0.04-0.03-0.06-0.05c0,0-0.01-0.01-0.01-0.01
		c-0.02-0.02-0.03-0.04-0.05-0.06c0,0-0.01-0.01-0.01-0.01c-0.02-0.02-0.03-0.05-0.05-0.07c0,0,0-0.01-0.01-0.01
		c-0.02-0.03-0.03-0.06-0.05-0.09c2.06-0.58,3.84-1.59,5.34-3.05L28.1,9.81c-1.19,1.07-2.57,1.84-4.13,2.35
		c-0.62,0.2-0.95,0.08-1-0.6c-0.01-0.16-0.03-0.33-0.05-0.49l-0.35,0.08c0.08,0.68,0.25,1.34,0.5,2.01
		c0.02,0.05-0.05,0.13-0.07,0.19c-0.49-0.18-0.86-1.05-1-2.06l-0.33,0.08c0.09,0.59,0.25,1.17,0.48,1.74
		c0.17,0.42,0.07,0.63-0.34,0.79c-0.43,0.17-0.86,0.37-1.27,0.61c-0.59,0.34-0.88,0.14-1.11-0.45c-0.25-0.66-0.44-1.33-0.57-2.01
		l-0.31,0.08c0.15,0.83,0.4,1.66,0.72,2.48c0.07,0.17-0.03,0.4-0.04,0.61c-0.15-0.12-0.38-0.21-0.44-0.37
		c-0.34-0.86-0.6-1.72-0.77-2.58l-0.34,0.08l-0.57,0.14l-0.03,0.01l-1.23,2.09c0.07,0.06,0.14,0.14,0.22,0.21
		c1.59,1.58,2.9,3.36,3.9,5.37c0.1,0.2,0.17,0.41,0.29,0.7c-0.22,0.14-0.42,0.36-0.65,0.39c-0.17,0.02-0.46-0.14-0.56-0.31
		c-0.48-0.78-0.84-1.63-1.38-2.37c-0.73-1.02-1.55-1.99-2.4-2.91c-0.01-0.02-0.03-0.03-0.04-0.05l-0.18,0.31
		c0.4,0.44,0.79,0.9,1.15,1.37c-0.61,1.21-1.66,0.86-2.55,1l-2.93,4.99c0.06,0.14,0.12,0.29,0.17,0.44c1.02,3.1,0.52,5.94-1.42,8.55
		c-0.16,0.22-0.36,0.41-0.55,0.6c-0.12,0.12-0.26,0.21-0.48,0.38C8.04,32.51,8.31,32,8.67,31.52c1.51-1.97,1.96-4.18,1.41-6.58
		c-0.03-0.13-0.07-0.26-0.12-0.39l-0.05,0.08l-0.2,0.34c0.07,0.38,0.08,0.79,0.09,1.18c0,0.06-0.41,0.19-0.63,0.18
		c-0.08-0.01-0.17-0.01-0.25-0.02l-0.22,0.37c0.42,0.04,0.84,0.08,1.25,0.12c0,0.13-0.01,0.27-0.01,0.4
		c-0.38,0.04-0.77,0.13-1.15,0.1c-0.15-0.01-0.29-0.02-0.44-0.03l-0.23,0.39c0.19,1.71-0.13,3.25-0.36,4.95
		c-0.38-0.58-0.33-2.97-0.01-4.33L7.23,29.2c-0.04,0.87-0.1,1.74-0.15,2.62c-0.59-0.17-0.9-0.32-1.06-0.56l-0.25,0.42
		c1.27,0.56,2.45,1.57,2.98,2.77c-0.4,0.33-0.7,0.25-1.04-0.15c-0.7-0.81-1.48-1.45-2.4-1.83l-0.32,0.55
		c0.13-0.11,0.28-0.2,0.31-0.17c0.49,0.34,1.12,0.65,1.36,1.14c0.27,0.56,0.17,1.27-0.56,1.65c-0.16,0.08-0.28,0.26-0.41,0.39
		c0.03,0.05,0.07,0.1,0.1,0.15c0.33-0.19,0.65-0.39,1.17-0.69c-0.02,0.23,0,0.45,0,0.63l0.36-0.27c-0.17-0.48-0.25-1.01-0.18-1.52
		c0.07-0.03,0.14-0.06,0.21-0.09c0.19,0.39,0.36,0.8,0.55,1.19l5.2-3.95l0.06-0.05c-0.11-0.13-0.19-0.26-0.25-0.38
		c-0.19-0.41-0.11-0.6,0.73-1.32c0.09,0.29,0.18,0.54,0.25,0.8c0.03,0.1,0.06,0.19,0.1,0.27l0.42-0.32
		c-0.05-0.05-0.1-0.11-0.15-0.17c-0.45-0.58-0.86-1.2-1.23-1.84c-0.1-0.17,0.01-0.47,0.02-0.71c0.31,0.08,0.74,0.06,0.91,0.25
		c0.48,0.56,0.91,1.15,1.36,1.76l0.95-0.72c-0.11,0.03-0.22,0.05-0.32,0.08c0,0,0,0-0.01,0c0,0,0,0,0,0c-0.01,0-0.02,0-0.03,0.01
		c-0.02,0-0.05,0.01-0.07,0.01c-0.02,0-0.03,0-0.05,0c-0.02,0-0.04,0-0.07,0c0,0-0.01,0-0.01,0c0,0,0,0,0,0h0c-0.01,0-0.02,0-0.02,0
		c-0.04,0-0.08,0-0.11-0.01c-0.01,0-0.02,0-0.03,0c-0.05,0-0.09-0.01-0.14-0.02c-0.01,0-0.02,0-0.03,0
		c-0.04-0.01-0.08-0.01-0.12-0.02c-0.01,0-0.03-0.01-0.04-0.01c-0.05-0.01-0.09-0.02-0.13-0.03c0,0-0.01,0-0.01-0.01c0,0,0,0,0-0.01
		c0,0,0-0.01-0.01-0.01c0,0,0-0.01,0-0.01c0-0.01,0-0.01,0-0.02c0,0,0-0.01,0-0.01c0-0.01,0-0.02,0-0.02c0,0,0-0.01,0-0.01
		c0-0.01,0-0.02,0-0.03c0,0,0-0.01,0-0.01c0-0.02,0-0.03,0-0.05c0,0,0,0,0,0c0-0.02,0-0.03,0-0.05c0-0.01,0-0.01,0-0.02
		c0-0.01,0-0.02,0-0.03c0,0,0,0,0-0.01c0-0.01,0-0.01,0-0.02c0,0,0-0.01,0-0.01c0-0.01,0-0.03,0-0.04c0,0,0,0,0,0
		c0-0.01,0-0.02,0-0.04c0,0,0-0.01,0-0.01c0-0.01,0-0.01,0-0.02c0,0,0-0.01,0-0.01c0-0.01,0-0.01,0-0.02c0,0,0-0.01,0-0.01
		c0,0,0-0.01,0.01-0.01c0,0,0,0,0-0.01c0,0,0.01-0.01,0.01-0.01c1.07-0.51,2.17-0.92,3.34-1.12l0.65-0.49
		c-0.06,0-0.12-0.01-0.19-0.02c-0.46-1.84-0.87-3.56-1.33-5.26c-0.14-0.52-0.43-1-0.66-1.49c-0.22-0.45-0.08-0.83,0.33-0.98
		c0.16-0.06,0.54,0.23,0.68,0.45c1.31,2,1.83,4.25,2.01,6.59c0,0.02,0,0.04,0,0.06l0.55-0.42L21.58,25l2.01-1.53l2.1-1.59
		c2.16-2.42,3.22-5.47,3.24-9.11c0-0.44-0.13-0.88-0.14-1.32c-0.01-0.26,0.08-0.52,0.12-0.78c0.13,0,0.26,0,0.39,0.01
		c0.11,0.82,0.34,1.63,0.32,2.45c-0.06,2.8-0.74,5.23-2.01,7.3l0.74-0.56c0.2-0.35,0.4-0.69,0.61-1.01
		c0.09-0.13,0.39-0.17,0.59-0.18c0.12-0.01,0.24-0.01,0.36,0l0.45-0.34c-0.26-0.04-0.51-0.09-0.76-0.16
		c-0.11-0.03-0.16-0.3-0.24-0.46c0.44-0.01,0.88-0.08,1.3-0.01c0.09,0.01,0.17,0.1,0.25,0.21l0.42-0.32
		c-0.16-0.76-0.22-1.54-0.3-2.32c-0.04-0.45,0.17-0.71,0.88-0.56c0.07,0.15,0.25,0.41,0.33,0.7c0.11,0.41,0.21,0.83,0.31,1.24
		l0.2-0.15c-0.33-2.12-0.27-4.21,0.41-6.27c0.12-0.38,0.28-0.69,0.77-0.62c0.48,0.07,0.58,0.4,0.71,0.81
		c0.18,0.56,0.46,1.11,0.8,1.6c0.22,0.32,0.48,0.63,0.12,0.87c-0.21,0.14-0.77,0.09-0.94-0.1c-0.37-0.4-0.59-0.93-0.98-1.59
		c0.05,1.61,0.09,3.07,0.14,4.51l0.75-0.57c-0.01-0.01-0.02-0.01-0.04-0.02c-0.41-0.2-0.64-0.43-0.46-0.83
		c0.07-0.14,0.49-0.25,0.69-0.18c0.27,0.08,0.53,0.17,0.8,0.27l5.35-4.07C40.64,9.92,40.39,9.52,40.11,9.15z M17.8,26.91
		c-1.99,0.37-3.98,0.59-6,0.38c-0.03-0.09-0.06-0.17-0.09-0.26c0.19-0.09,0.37-0.25,0.56-0.27c1.79-0.17,3.58-0.33,5.37-0.47
		c0.17-0.01,0.35,0.15,0.53,0.23C18.05,26.65,17.94,26.88,17.8,26.91z M17.84,23.89c0.16,0.44,0.25,0.91,0.27,1.38
		c0.01,0.19-0.22,0.54-0.37,0.56c-1.79,0.23-3.58,0.42-5.37,0.59c-0.4,0.04-0.63-0.18-0.68-0.61c-0.05-0.44-0.15-0.87-0.25-1.42
		c0.17-0.08,0.35-0.21,0.54-0.23c1.76-0.23,3.53-0.45,5.3-0.63C17.46,23.5,17.78,23.71,17.84,23.89z M16.85,22.51
		c0.23-0.03,0.49,0.11,0.74,0.17c-0.02,0.15-0.03,0.29-0.05,0.44c-1.43,0.2-2.86,0.4-4.29,0.59c-0.49,0.06-0.98,0.11-1.47,0.09
		c-0.24-0.01-0.47-0.2-0.7-0.31c0.03-0.09,0.06-0.17,0.08-0.26c0.85-0.07,1.71-0.1,2.55-0.21C14.76,22.87,15.8,22.65,16.85,22.51z
		 M16.85,18.89c-0.89,1.2-1.81,2.38-2.79,3.51c-0.2,0.23-0.65,0.24-0.99,0.35c-0.06-0.08-0.11-0.16-0.17-0.24
		c0.38-0.7,0.69-1.46,1.16-2.1c0.61-0.83,1.33-1.58,2.04-2.33c0.11-0.12,0.6-0.1,0.65,0C16.88,18.31,16.97,18.72,16.85,18.89z
		 M19.21,17.02c-0.34,0.22-0.64,0.22-0.78-0.16c-0.08-0.21-0.06-0.63,0.08-0.72c1.78-1.22,3.67-2.2,5.79-2.69
		c0.09-0.02,0.19-0.02,0.38-0.04c0.06,0.11,0.23,0.28,0.19,0.37c-0.1,0.25-0.24,0.57-0.45,0.66c-0.92,0.41-1.89,0.7-2.8,1.14
		C20.77,15.99,19.99,16.52,19.21,17.02z M24.15,16.86c-1.08,2.05-1.15,2.05-2.72,0.39c-0.22-0.23-0.42-0.47-0.74-0.82
		c0.84-0.4,1.55-0.88,2.33-1.06c0.33-0.07,0.84,0.45,1.2,0.79C24.33,16.26,24.26,16.66,24.15,16.86z M20.2,17.18
		c-0.05-0.05-0.02-0.26,0.04-0.31c0.06-0.05,0.25-0.04,0.32,0.02c0.64,0.62,1.26,1.25,1.89,1.88c0.06,0.06,0.09,0.16,0.18,0.33
		c-0.2,0.04-0.42,0.15-0.48,0.09C21.48,18.54,20.84,17.86,20.2,17.18z M19.92,21.56c2.6-1.37,4.37-3.42,5.16-6.27
		c0.15-0.56,0.08-1.18,0.18-1.76c0.04-0.21,0.27-0.38,0.41-0.57c0.1,0.2,0.28,0.4,0.29,0.6c0.01,0.49-0.05,0.98-0.08,1.38
		c-0.7,3.41-2.5,5.85-5.62,7.25c-0.2,0.09-0.5-0.04-0.75-0.07C19.65,21.93,19.74,21.66,19.92,21.56z M20.17,25.03
		c-0.11-0.6-0.27-1.2-0.3-1.8c-0.01-0.2,0.27-0.49,0.5-0.61c2.26-1.18,4.05-2.78,5.1-5.17c0.58-1.32,0.78-2.7,0.83-4.1
		c0.02-0.55,0.21-0.83,0.66-1.11c0.45-0.28,0.82-0.7,1.22-1.06C29.69,18.05,24.3,24.34,20.17,25.03z M31.61,14.3
		c-0.19,0.02-0.39-0.05-0.65-0.1c-0.31-0.17-1.11,0.12-0.98-0.66c0.1-0.6,0.47-0.49,0.84-0.39c0.15,0.04,0.3,0.08,0.42,0.08
		c0.21-0.01,0.5,0.02,0.63,0.16c0.16,0.17,0.24,0.45,0.26,0.69C32.12,14.14,31.79,14.28,31.61,14.3z"/>
	<path class="st7" d="M18.38,27.43c-1.17,0.2-2.27,0.61-3.34,1.12c-0.03,0.01-0.04,0.1-0.04,0.2c0,0.14,0.02,0.3,0.05,0.31
		c0.2,0.05,0.42,0.1,0.63,0.1h0c0,0,0,0,0,0c0.08,0,0.16-0.01,0.23-0.02c0,0,0,0,0,0c0,0,0,0,0.01,0l0,0
		c0.11-0.02,0.22-0.05,0.32-0.08L18.38,27.43"/>
	<path class="st7" d="M29.67,9.43l-0.91,0.22l0,0c-1.5,1.46-3.28,2.47-5.34,3.05c0.15,0.27,0.29,0.4,0.56,0.4c0,0,0,0,0,0
		c0.01,0,0.02,0,0.02,0c0.3-0.01,0.77-0.19,1.56-0.54c0.01,0,0.01-0.01,0.02-0.01c0.01-0.01,0.02-0.01,0.04-0.02
		c0.01,0,0.01-0.01,0.02-0.01c0,0,0,0,0,0c0.01-0.01,0.02-0.01,0.04-0.02C27.2,11.82,28.84,10.52,29.67,9.43"/>
	<path class="st7" d="M33.61,8.47l-1.55,0.37l0,0c-0.29,0.77-0.51,1.57-0.68,2.4c-0.06,0.34-0.17,0.68-0.17,1.01
		c0,0.05,0,0.11,0.01,0.16c0.03,0.21,0.36,0.43,0.6,0.54l0,0c0,0,0,0,0,0c0,0,0.01,0,0.01,0c0,0,0,0,0,0c0.07,0,0.3-0.21,0.4-0.39
		c0,0,0,0,0,0c0,0,0,0,0-0.01c0,0,0,0,0,0c0,0,0,0,0,0c0,0,0,0,0,0c0,0,0,0,0,0c0,0,0-0.01,0.01-0.01c0,0,0,0,0,0c0,0,0,0,0,0
		c0,0,0,0,0,0c0,0,0,0,0,0c0,0,0,0,0,0c0-0.01,0.01-0.01,0.01-0.02c0,0,0,0,0,0c0-0.01,0-0.01,0.01-0.02c0,0,0,0,0,0c0,0,0,0,0,0
		c0,0,0,0,0,0c0,0,0,0,0,0l0,0c0.22-0.78,0.28-1.62,0.6-2.35C33.09,9.57,33.35,9.02,33.61,8.47"/>
	<path class="st10" d="M25.27,36.76C25.27,36.76,25.27,36.76,25.27,36.76c-0.14,0-0.31,0.07-0.4,0.17c0,0,0,0,0,0c0,0,0,0,0,0
		c0,0,0,0,0,0.01c-0.03,0.04-0.04,0.09-0.04,0.15c0,0.08,0.02,0.18,0.03,0.26c0.03,0.3,0.04,0.59,0.04,0.88
		c0,0.91-0.14,1.79-0.42,2.63l0.67,0.3l0,0c0.1-0.34,0.17-0.68,0.21-1.03c0.18-0.65,0.29-1.29,0.29-1.94c0-0.38-0.04-0.75-0.12-1.13
		c-0.03-0.12-0.15-0.3-0.23-0.3C25.29,36.76,25.28,36.76,25.27,36.76C25.27,36.76,25.27,36.76,25.27,36.76"/>
	<path class="st10" d="M31.9,40.11C31.9,40.11,31.9,40.11,31.9,40.11c-1.81,0-3.47,0.64-5,1.82c-0.01,0.01-0.01,0.01-0.02,0.02l0,0
		l0.08,0.04l0.72-0.05l0,0c0.01-0.01,0.02-0.01,0.03-0.02c0.01,0,0.01-0.01,0.02-0.01c1.36-0.88,2.95-1.38,4.5-1.38c0,0,0,0,0,0l0,0
		l0,0c0,0,0,0,0,0c0.35,0,0.69,0.03,1.03,0.08c0,0,0.01,0,0.01,0c0,0,0.01,0,0.01,0c0.03,0,0.06,0.01,0.09,0.01c0,0,0,0,0,0
		c0,0,0,0,0,0c0.09,0,0.17-0.02,0.26-0.03c0.03-0.01,0.06-0.01,0.1-0.02c0,0,0,0,0,0c0,0,0.01,0,0.01,0c0,0,0,0,0.01,0
		c0,0,0.01,0,0.01,0c0,0,0,0,0,0c0,0,0.01,0,0.01,0c-0.01-0.08-0.03-0.15-0.04-0.23l0,0c0,0-0.01,0-0.01,0c-0.01,0-0.02,0-0.02-0.01
		C33.09,40.18,32.49,40.11,31.9,40.11C31.9,40.11,31.9,40.11,31.9,40.11"/>
	<path class="st10" d="M38.13,38.89c-0.04,0.06-0.09,0.11-0.13,0.17c0.07,0.19,0.17,0.38,0.21,0.58c0.11,0.51,0.24,1.02,0.3,1.54
		l0.83-0.06c-0.02-0.65-0.22-1.27-0.53-1.86C38.72,39.07,38.37,39.01,38.13,38.89"/>
	<path class="st10" d="M21.09,36.12c-0.14,0.07-0.34,0.11-0.4,0.22c-0.25,0.47-0.46,0.96-0.62,1.3c-0.04,0.3-0.06,0.58-0.06,0.86
		c0,0.12,0,0.24,0.01,0.36l0.82,0.37c-0.04-0.23-0.07-0.47-0.07-0.7c0-0.55,0.13-1.11,0.46-1.66c0.04-0.06,0.1-0.14,0.1-0.2
		c0-0.01,0-0.01,0-0.02C21.27,36.47,21.18,36.3,21.09,36.12"/>
	<path class="st10" d="M19.5,37.51C19.5,37.51,19.5,37.51,19.5,37.51C19.5,37.51,19.5,37.51,19.5,37.51
		C19.5,37.51,19.5,37.51,19.5,37.51L19.5,37.51c-0.46,0.01-0.92-0.02-1.36,0.05c-0.24,0.04-0.35,0.15-0.4,0.28l1.98,0.89
		c0.01-0.01,0.01-0.02,0.01-0.04c0-0.07,0.01-0.14,0.01-0.21c0-0.31-0.03-0.62-0.06-0.93c0,0,0,0,0,0c0-0.02-0.07-0.03-0.13-0.04
		c0,0,0,0-0.01,0c0,0-0.01,0-0.01,0C19.52,37.51,19.51,37.51,19.5,37.51"/>
	<path class="st10" d="M30.87,37.94C30.87,37.94,30.87,37.94,30.87,37.94c-0.13,0-0.26,0.08-0.41,0.18c0,0,0,0,0,0c0,0,0,0,0,0
		c0,0,0,0,0,0l0,0c0.31,0.63,1.25,1.45,1.86,1.54c0.02,0,0.04,0,0.05,0c0,0,0,0,0,0c0,0,0,0,0,0c0.19,0,0.42-0.12,0.54-0.25
		c0,0,0,0,0,0c0,0,0,0,0,0c0,0,0,0,0,0c0.04-0.04,0.05-0.12,0.05-0.21c0-0.13-0.04-0.28-0.1-0.33c0,0,0,0,0,0
		c-0.05-0.04-0.13-0.05-0.21-0.05c0,0,0,0,0,0c0,0,0,0,0,0c-0.05,0-0.1,0-0.15,0.01c0,0,0,0-0.01,0l0,0l0,0c-0.01,0-0.03,0-0.04,0
		c-0.04,0-0.08,0.01-0.12,0.01c0,0,0,0,0,0l0,0l0,0c0,0,0,0,0,0c-0.02,0-0.04,0-0.05,0l0,0c-0.19-0.01-0.41,0.02-0.55-0.08
		c-0.2-0.13-0.36-0.33-0.48-0.54c0,0,0-0.01-0.01-0.01C31.12,38.02,30.99,37.94,30.87,37.94C30.87,37.94,30.87,37.94,30.87,37.94"/>
	<path class="st10" d="M26,39C26,39,26,39,26,39c-0.14,0-0.23,0.12-0.26,0.34c0,0,0,0,0,0c0,0,0,0,0,0
		c-0.04,0.34-0.07,0.68-0.12,1.02c0,0,0,0.01,0,0.01c-0.01,0.12,0.08,0.3,0.22,0.48c0.27,0.36,0.73,0.74,0.98,0.74h0
		c0.01,0,0.02,0,0.03,0l0,0c0.06-0.01,0.12-0.05,0.18-0.08c0.4-0.25,0.79-0.5,1.36-0.85c-0.77-0.57-1.45-1.09-2.15-1.57c0,0,0,0,0,0
		C26.15,39.03,26.07,39,26,39C26,39,26,39,26,39"/>
	<path class="st10" d="M25.97,38.33c-0.03,0.05-0.06,0.1-0.09,0.15c0.11,0.1,0.21,0.22,0.32,0.31c0.73,0.55,1.45,1.09,2.19,1.62
		c0.1,0.07,0.25,0.07,0.38,0.11c-0.04-0.14-0.04-0.33-0.13-0.4c-0.73-0.57-1.48-1.11-2.23-1.65C26.29,38.38,26.11,38.37,25.97,38.33
		"/>
	<path class="st10" d="M28.73,36.12C28.73,36.12,28.73,36.12,28.73,36.12c-0.12,0-0.24,0.02-0.36,0.05c0,0,0,0-0.01,0l0,0
		c-0.5,0.15-0.81,0.62-0.81,1.11c0,0.22,0.06,0.44,0.19,0.63l0,0c0,0.01,0.01,0.01,0.01,0.02c0.38,0.54,1.02,0.85,1.73,0.85
		c0,0,0,0,0,0c0,0,0,0,0,0c0.33,0,0.67-0.07,1.01-0.21l0,0c-0.32-0.18-0.54-0.34-0.78-0.42c-0.33-0.12-0.69-0.15-1.03-0.27
		c-0.27-0.09-0.49-0.26-0.49-0.52c0-0.08,0.02-0.16,0.06-0.26l0,0c0,0,0,0,0-0.01l0,0c0.1-0.23,0.26-0.31,0.43-0.31c0,0,0,0,0,0l0,0
		l0,0c0,0,0,0,0,0c0.13,0,0.27,0.04,0.41,0.08c0,0,0.01,0,0.01,0c0,0,0,0,0.01,0c0.01,0,0.01,0,0.02,0l0,0
		c0.31,0.09,0.63,0.12,1.03,0.2c-0.01-0.01-0.01-0.02-0.02-0.03C29.85,36.45,29.28,36.12,28.73,36.12
		C28.73,36.12,28.73,36.12,28.73,36.12"/>
	<path class="st10" d="M25.56,34.11c-0.22-0.09-0.44-0.13-0.65-0.13c0,0,0,0,0,0c0,0,0,0,0,0c-0.48,0-0.91,0.23-1.16,0.64
		c0,0,0,0,0,0c0,0.01-0.01,0.01-0.01,0.02c0.32,0.07,0.63,0.18,0.93,0.18c0.33,0.01,0.52,0.13,0.52,0.35c0,0.08-0.03,0.18-0.08,0.29
		c-0.11,0.21-0.33,0.35-0.47,0.54c-0.06,0.07-0.11,0.19-0.11,0.27c0,0.02,0,0.04,0.01,0.05c0.04,0.12,0.17,0.26,0.28,0.29
		c0,0,0,0,0,0c0.02,0,0.03,0,0.05,0c0,0,0,0,0,0c0.01,0,0.01,0,0.02,0c0.29-0.02,0.73-0.44,0.74-0.71c0.01-0.32,0.17-0.5,0.44-0.5
		c0,0,0,0,0,0c0,0,0,0,0,0c0.02,0,0.05,0,0.07,0c0,0,0,0,0.01,0c0.24,0.03,0.3,0.19,0.3,0.37c0,0.06-0.01,0.13-0.02,0.2
		c-0.04,0.26-0.12,0.51-0.13,0.77c0,0,0,0,0,0.01c0,0.1,0.1,0.26,0.19,0.28c0,0,0,0,0,0c0,0,0,0,0,0c0,0,0,0,0,0
		c0.01,0,0.02,0,0.02,0c0,0,0,0,0,0c0.01,0,0.02,0,0.02,0c0.01,0,0.02,0,0.04-0.01c0.04-0.01,0.09-0.03,0.13-0.06
		c0.01-0.01,0.03-0.02,0.04-0.03c0,0,0,0,0,0c0.02-0.02,0.03-0.03,0.04-0.05c0,0,0,0,0,0c0,0,0,0,0,0c0.08-0.19,0.11-0.4,0.13-0.61
		c0.01-0.06,0.01-0.11,0.01-0.17c0-0.12-0.01-0.24-0.01-0.36c0.04-0.01,0.08-0.01,0.11-0.01c0.11,0.27,0.23,0.53,0.37,0.89
		c0.18-0.22,0.29-0.37,0.43-0.54C27.22,35.21,26.52,34.49,25.56,34.11z"/>
	<path class="st10" d="M35.69,37.41C35.69,37.41,35.69,37.41,35.69,37.41c-0.11,0-0.21,0.04-0.3,0.12c0,0,0,0-0.01,0.01l0,0
		c-0.67,0.65-1.29,1.35-1.91,2.05c0,0,0,0,0,0c0,0,0,0,0,0c0,0,0,0,0,0c0,0,0,0,0,0c0,0,0,0,0,0c0,0,0,0,0,0c0,0,0,0,0,0
		c0,0.01,0,0.02,0,0.04c0.02,0.1,0.13,0.32,0.15,0.32l0,0c0,0,0,0,0,0c0,0,0,0,0,0c0.21-0.04,0.47-0.08,0.61-0.22
		c0.51-0.48,0.97-1,1.46-1.49c0.18-0.18,0.39-0.31,0.64-0.51l0,0c0,0,0,0,0,0c0,0,0,0,0,0c0,0,0,0,0,0c0,0,0,0,0,0c0,0,0,0,0,0
		c0,0,0,0,0,0C36.1,37.54,35.89,37.42,35.69,37.41C35.69,37.41,35.69,37.41,35.69,37.41"/>
	<path class="st10" d="M34.7,36.4C34.7,36.4,34.7,36.4,34.7,36.4c-1.09,0-2.14,0.44-3.18,1.18c0,0,0,0,0,0c0,0,0,0-0.01,0
		c0,0-0.01,0-0.01,0.01l0,0c-0.06,0.04-0.11,0.18-0.11,0.28c0,0.03,0.01,0.06,0.02,0.07c0.07,0.1,0.24,0.19,0.37,0.19l0,0
		c0,0,0,0,0,0c0,0,0,0,0,0c0.13,0,0.28-0.08,0.38-0.17c0,0,0,0,0,0c0,0,0,0,0,0c0,0,0,0,0.01,0c0.24-0.22,0.44-0.47,0.66-0.71
		c0,0.02,0,0.05,0,0.07c0,0.15-0.06,0.29-0.06,0.43c0,0,0,0.01,0,0.01c0,0.17,0.05,0.35,0.11,0.52c0.01,0.02,0.1,0.04,0.16,0.04
		c0,0,0.01,0,0.01,0c0,0,0,0,0,0c0.02,0,0.04,0,0.04-0.01c0,0,0,0,0,0c0,0,0,0,0,0c0,0,0,0,0,0c0.06-0.15,0.12-0.31,0.15-0.48
		c0-0.02,0-0.04,0-0.07c0-0.08-0.02-0.16-0.02-0.24c0-0.05,0.01-0.09,0.03-0.12c0.08-0.13,0.26-0.26,0.4-0.27l0,0c0,0,0,0,0.01,0
		c0,0,0,0,0,0l0,0l0,0c0,0,0.01,0,0.01,0c0,0,0,0,0,0c0.02,0,0.05,0.01,0.08,0.03c0,0,0,0,0,0c0,0,0.01,0.01,0.01,0.01c0,0,0,0,0,0
		c0,0,0,0,0,0c0.09,0.06,0.17,0.16,0.19,0.23c0,0,0,0,0,0c0,0,0,0.01,0,0.01c0,0.01,0,0.02,0,0.03c0,0.15-0.11,0.31-0.15,0.46
		c-0.05,0.19-0.08,0.39-0.12,0.58c0.08,0.04,0.16,0.07,0.24,0.11c0.19-0.29,0.48-0.55,0.56-0.86l0,0c0,0,0,0,0,0c0,0,0,0,0,0
		c0.09-0.4,0.2-0.62,0.52-0.62c0,0,0,0,0,0l0,0h0c0,0,0,0,0,0c0.06,0,0.12,0.01,0.19,0.02c0,0,0.01,0,0.01,0l0,0
		c0.52,0.11,1,0.35,1.51,0.51c0.32,0.1,0.65,0.14,0.97,0.21c0.02-0.05,0.05-0.11,0.07-0.16c-0.13-0.13-0.25-0.28-0.4-0.38
		c0,0-0.01,0-0.01-0.01c-0.01-0.01-0.02-0.01-0.02-0.02c0,0,0,0-0.01,0C36.43,36.67,35.56,36.4,34.7,36.4
		C34.7,36.4,34.7,36.4,34.7,36.4"/>
	<path class="st10" d="M32.28,40.73C32.28,40.73,32.28,40.73,32.28,40.73c-1.17,0-2.6,0.46-3.88,1.14c0,0-0.01,0-0.01,0.01
		c-0.01,0-0.01,0.01-0.02,0.01l4.94-0.35c0.07-0.19,0.14-0.38,0.22-0.58l0,0C33.17,40.8,32.74,40.73,32.28,40.73
		C32.28,40.73,32.28,40.73,32.28,40.73"/>
	<path class="st10" d="M35.11,40.84C35.11,40.84,35.11,40.84,35.11,40.84c-0.08,0-0.13,0.01-0.17,0.03
		c0.05,0.06,0.09,0.14,0.15,0.17c0.22,0.11,0.44,0.21,0.66,0.32l0.93-0.07l0,0c0,0-0.01,0-0.01-0.01c0,0,0,0,0,0c0,0,0,0-0.01,0
		c0,0-0.01,0-0.01,0c0,0-0.01,0-0.01,0c-0.01,0-0.02-0.01-0.03-0.01c0,0,0,0,0,0c0,0-0.01,0-0.01-0.01c-0.01,0-0.01,0-0.02-0.01
		c0,0,0,0-0.01,0c0,0,0,0-0.01,0c0,0,0,0,0,0c0,0,0,0,0,0c0,0,0,0,0,0c0,0,0,0-0.01,0c0,0-0.01,0-0.01,0c0,0-0.01,0-0.01,0
		c0,0-0.01,0-0.01-0.01c0,0-0.01,0-0.01,0c0,0,0,0,0,0c0,0,0,0,0,0c0,0,0,0,0,0c0,0-0.01,0-0.01-0.01c0,0,0,0,0,0c0,0,0,0,0,0
		c-0.01,0-0.02-0.01-0.03-0.01c0,0-0.01,0-0.01,0c0,0,0,0,0,0c-0.02-0.01-0.03-0.01-0.05-0.02c-0.01,0-0.01,0-0.02-0.01c0,0,0,0,0,0
		c0,0,0,0-0.01,0c0,0,0,0,0,0c0,0,0,0-0.01,0c0,0,0,0,0,0c0,0-0.01,0-0.01-0.01c0,0,0,0,0,0c0,0-0.01,0-0.01,0c0,0,0,0,0,0
		c0,0-0.01,0-0.01,0c-0.02-0.01-0.04-0.02-0.06-0.02c0,0,0,0,0,0c0,0,0,0,0,0c0,0-0.01,0-0.01,0c0,0,0,0,0,0c0,0-0.01,0-0.01-0.01
		c0,0,0,0,0,0c0,0,0,0,0,0c-0.11-0.04-0.22-0.08-0.33-0.11c0,0,0,0,0,0c-0.03-0.01-0.07-0.02-0.1-0.03c0,0-0.01,0-0.01,0
		c0,0,0,0,0,0c0,0-0.01,0-0.01,0c0,0,0,0,0,0c0,0-0.01,0-0.01,0c-0.01,0-0.01,0-0.02,0c0,0,0,0,0,0c0,0,0,0,0,0c0,0-0.01,0-0.01,0
		c0,0,0,0,0,0c0,0,0,0-0.01,0c0,0,0,0-0.01,0c0,0,0,0,0,0c0,0,0,0-0.01,0c0,0,0,0,0,0c-0.01,0-0.01,0-0.02,0c0,0,0,0,0,0
		c0,0,0,0-0.01,0c0,0,0,0,0,0c0,0,0,0-0.01,0c0,0,0,0,0,0c0,0,0,0,0,0c0,0,0,0-0.01,0c0,0-0.01,0-0.01,0
		c-0.01,0-0.03-0.01-0.04-0.01c0,0,0,0,0,0c-0.01,0-0.02,0-0.02-0.01c0,0,0,0,0,0c0,0,0,0-0.01,0c0,0,0,0,0,0
		c-0.01,0-0.01,0-0.02-0.01c-0.01,0-0.02,0-0.03-0.01c0,0,0,0,0,0c0,0,0,0,0,0c0,0,0,0-0.01,0c-0.01,0-0.02,0-0.03-0.01c0,0,0,0,0,0
		c0,0,0,0,0,0c0,0,0,0,0,0c0,0,0,0,0,0c0,0,0,0-0.01,0c0,0,0,0,0,0c0,0-0.01,0-0.01,0c0,0,0,0,0,0c0,0,0,0,0,0c0,0,0,0,0,0
		c0,0,0,0-0.01,0c0,0,0,0-0.01,0l0,0c0,0-0.01,0-0.01,0c0,0,0,0,0,0c0,0-0.01,0-0.01,0c0,0,0,0,0,0c0,0,0,0-0.01,0c0,0,0,0,0,0
		c0,0-0.01,0-0.01,0c-0.02,0-0.03-0.01-0.05-0.01c0,0,0,0,0,0c-0.01,0-0.01,0-0.02,0c0,0,0,0,0,0c0,0,0,0,0,0c0,0,0,0,0,0
		c-0.01,0-0.01,0-0.02,0c0,0,0,0,0,0c-0.06-0.01-0.12-0.02-0.17-0.02c0,0,0,0,0,0c0,0-0.01,0-0.01,0c0,0-0.01,0-0.01,0c0,0,0,0,0,0
		c0,0-0.01,0-0.01,0h0c0,0-0.01,0-0.01,0C35.12,40.84,35.12,40.84,35.11,40.84"/>
	<path class="st10" d="M23.57,37.44C23.57,37.44,23.57,37.44,23.57,37.44c-0.12-0.02-0.24-0.05-0.36-0.08c0,0-0.01,0-0.01,0
		c0,0,0,0,0,0c-0.43-0.11-0.87-0.26-1.31-0.26c0,0,0,0,0,0c0,0,0,0,0,0c-0.17,0-0.34,0.02-0.52,0.08c0,0,0,0,0,0c0,0-0.01,0-0.01,0
		c-0.01,0.07-0.01,0.14-0.02,0.21c1.08,0.22,2.17,0.45,3.39,0.7C24.46,37.56,23.97,37.52,23.57,37.44z"/>
	<path class="st10" d="M35.38,38.96C35.38,38.96,35.38,38.96,35.38,38.96c-0.13,0-0.23,0.11-0.33,0.23c-0.07,0.08-0.1,0.16-0.1,0.22
		c0,0.12,0.1,0.21,0.24,0.28c0.54,0.25,0.86,0.38,1.4,0.62c0.01-0.02,0.25,0.06,0.26,0.04l0,0c0,0,0.01,0,0.01,0c0,0,0,0,0.01,0
		c0.01,0,0.01,0,0.02,0c0,0,0,0,0,0c0.02,0,0.03,0.01,0.05,0.01c0,0,0.01,0,0.01,0c0,0,0,0,0.01,0c0,0,0,0,0.01,0
		c0.01,0,0.01,0,0.02,0c0.21,0.04,0.41,0.09,0.62,0.09c0,0,0,0,0,0c0,0,0,0,0,0c0.02,0,0.04,0,0.07,0l0,0
		c0.17-0.01,0.44-0.15,0.46-0.26c0.01-0.03,0.01-0.06,0.01-0.08c0-0.22-0.18-0.36-0.45-0.36c-0.76-0.01-1.48-0.18-2.08-0.69
		c0,0,0,0,0,0C35.53,38.99,35.45,38.96,35.38,38.96C35.38,38.96,35.38,38.96,35.38,38.96"/>
	<path class="st1" d="M34.42,31.52l-10.83-8.05l-10.5,7.99l2.54,5.44l2.11,0.95c0.05-0.14,0.16-0.24,0.4-0.28
		c0.44-0.07,0.9-0.04,1.36-0.05c0.06,0,0.18,0.02,0.18,0.04c0.03,0.38,0.08,0.76,0.06,1.14c0,0.01,0,0.02-0.01,0.04l0.3,0.13
		c-0.02-0.39-0.01-0.79,0.05-1.22c0.16-0.34,0.37-0.83,0.62-1.3c0.06-0.11,0.27-0.15,0.4-0.22c0.08,0.18,0.18,0.35,0.24,0.53
		c0.02,0.06-0.05,0.15-0.09,0.22c-0.47,0.79-0.54,1.58-0.4,2.36l0.67,0.3l2.6,1.17l0.38,0.17c0.37-1.12,0.49-2.29,0.37-3.51
		c-0.01-0.14-0.06-0.33,0.01-0.42c0.09-0.11,0.28-0.18,0.42-0.18c0.08,0,0.21,0.18,0.23,0.3c0.22,1.02,0.11,2.04-0.17,3.07
		c-0.04,0.35-0.11,0.69-0.21,1.03l0.26,0.12l0.81,0.36l0.67,0.3c2.03-1.57,4.3-2.2,6.86-1.62c0.01,0.08,0.03,0.15,0.04,0.23
		c-0.16,0.02-0.33,0.07-0.49,0.05c-1.88-0.3-3.93,0.23-5.61,1.33l0.68-0.05c1.8-0.97,3.89-1.48,5.16-0.93
		c-0.08,0.2-0.15,0.39-0.22,0.58l0.26-0.02c0.21-0.53,0.49-1.05,0.84-1.55c0.08-0.12,0.21-0.21,0.29-0.29
		c0.36,0.17,0.47,0.33,0.25,0.64c-0.26,0.36-0.47,0.75-0.65,1.15l0.28-0.02l0.99-0.07l0.18-0.01c-0.22-0.11-0.44-0.21-0.66-0.32
		c-0.06-0.03-0.1-0.11-0.15-0.17c0.2-0.12,0.92,0.09,1.74,0.42l1.83-0.13c-0.06-0.52-0.2-1.03-0.3-1.54
		c-0.04-0.2-0.14-0.38-0.21-0.58c0.04-0.06,0.09-0.11,0.13-0.17c0.24,0.12,0.59,0.18,0.69,0.37c0.31,0.59,0.51,1.21,0.53,1.86
		l7.3-0.51L34.42,31.52z M31.63,35.12c0.14-0.11,0.27-0.31,0.41-0.31c0.33-0.01,0.49,0.25,0.47,0.56c-0.04,1-0.63,1.65-1.43,2.12
		c-0.69,0.4-1.45,0.62-2.22,0.2c-0.15-0.08-0.22-0.32-0.33-0.49c0.19,0,0.4-0.07,0.55,0c1.16,0.5,2.98-0.47,2.95-1.61
		C31.9,35.43,31.76,35.28,31.63,35.12z M22.02,35.06c0.52-0.15,0.82-0.13,1.35-0.25c0.02,0.03,0.26-0.05,0.27-0.01
		c0.28,0.13,0.57,0.23,0.82,0.4c0.12,0.08,0.15,0.28,0.23,0.42c-0.17,0.07-0.4,0.25-0.49,0.19c-0.65-0.41-1.29-0.29-1.97-0.11
		c-0.11,0.03-0.32-0.17-0.43-0.31C21.77,35.36,21.92,35.09,22.02,35.06z M24.55,37.39c-0.67-0.04-1.12-0.71-0.98-1.48
		C24.14,35.98,24.56,36.61,24.55,37.39z M18.69,37.27c-0.28-0.01-0.56-0.02-0.83,0.03c0.12-0.41,1.4-0.58,2.15-0.27
		C19.59,37.31,19.14,37.29,18.69,37.27z M21.08,35.64c-0.3-0.7-0.42-1.48-0.6-2.23c-0.12-0.49-0.01-1.05-0.5-1.39
		c-0.06,0.01-0.1,0.01-0.12,0.02c-0.16,0.06-0.33,0.12-0.49,0.18c-0.04-0.13-0.15-0.33-0.11-0.37c0.15-0.13,0.38-0.3,0.51-0.26
		c0.25,0.08,0.54,0.26,0.68,0.48c0.34,0.57,0.49,1.2,0.32,1.87c-0.02,0.09-0.01,0.18,0.08,0.32c0.08-0.14,0.16-0.28,0.24-0.42
		c0.09-0.15,0.15-0.33,0.28-0.45c0.05-0.05,0.15-0.05,0.25-0.05c0.04,0,0.09,0,0.13,0c-0.01,0.12,0.01,0.26-0.04,0.35
		c-0.11,0.19-0.33,0.34-0.4,0.54c-0.21,0.58-0.05,1.13,0.41,1.5c0.38,0.3,0.88,0.44,1.32,0.67c0.16,0.09,0.31,0.21,0.52,0.36
		C22.79,37.09,21.47,36.54,21.08,35.64z M24.64,38.9c-0.16,1.31-0.14,1.29-1.38,0.87c-0.57-0.19-1.15-0.34-1.74-0.47
		c-0.35-0.08-0.51-0.25-0.48-0.61c0.01-0.16,0.01-0.33,0.02-0.49c0.04-0.52,0.18-0.63,0.68-0.55c0.03,0.01,0.06,0.01,0.1,0.02
		c0.29,0.06,0.57,0.12,0.86,0.18c0.01-0.02,0.23,0.08,0.24,0.06c0.52,0.17,0.83,0.22,1.35,0.4C24.56,38.4,24.67,38.57,24.64,38.9z
		 M21.34,37.39c0.01-0.07,0.01-0.14,0.02-0.21c0.75-0.25,1.48,0.13,2.21,0.27c0.4,0.07,0.88,0.12,1.16,0.64
		C23.51,37.84,22.43,37.61,21.34,37.39z M25.62,35.9c0,0.3-0.53,0.77-0.81,0.71c-0.11-0.02-0.24-0.17-0.28-0.29
		c-0.03-0.08,0.04-0.23,0.1-0.32c0.15-0.19,0.37-0.34,0.47-0.54c0.21-0.4,0.01-0.64-0.44-0.64c-0.31-0.01-0.61-0.11-0.93-0.18
		c0.36-0.6,1.08-0.82,1.82-0.52c0.96,0.39,1.66,1.11,2.27,1.95c-0.14,0.17-0.25,0.32-0.43,0.54c-0.15-0.35-0.26-0.62-0.37-0.89
		c-0.04,0.01-0.08,0.01-0.11,0.01c0,0.18,0.02,0.36,0,0.54c-0.02,0.21-0.05,0.42-0.13,0.61c-0.04,0.09-0.22,0.18-0.3,0.16
		c-0.08-0.02-0.19-0.19-0.19-0.29c0.01-0.26,0.09-0.51,0.13-0.77c0.04-0.26,0.04-0.53-0.29-0.57C25.83,35.37,25.63,35.54,25.62,35.9
		z M27.03,41.52c-0.05,0.03-0.12,0.07-0.18,0.08c-0.36,0.05-1.27-0.87-1.23-1.23c0.04-0.34,0.08-0.68,0.12-1.02
		c0.04-0.34,0.23-0.44,0.49-0.26c0.7,0.49,1.38,1.01,2.15,1.57C27.82,41.02,27.43,41.27,27.03,41.52z M28.39,40.41
		c-0.74-0.53-1.46-1.08-2.19-1.62c-0.12-0.09-0.22-0.2-0.32-0.31c0.03-0.05,0.06-0.1,0.09-0.15c0.15,0.04,0.32,0.05,0.44,0.13
		c0.75,0.54,1.5,1.09,2.23,1.65c0.09,0.07,0.09,0.26,0.13,0.4C28.64,40.48,28.49,40.48,28.39,40.41z M27.75,37.91
		c-0.43-0.63-0.11-1.52,0.61-1.74c0.65-0.19,1.44,0.16,1.82,0.92c-0.4-0.07-0.73-0.11-1.03-0.2c-0.35-0.1-0.69-0.2-0.87,0.22
		c-0.18,0.42,0.07,0.65,0.43,0.78c0.33,0.11,0.69,0.15,1.03,0.27c0.24,0.08,0.46,0.24,0.78,0.42C29.41,39.03,28.3,38.71,27.75,37.91
		z M32.92,39.41c-0.13,0.15-0.41,0.28-0.61,0.25c-0.6-0.08-1.55-0.9-1.86-1.54c0.29-0.22,0.55-0.31,0.79,0.09
		c0.12,0.2,0.29,0.41,0.48,0.54c0.14,0.09,0.37,0.06,0.55,0.08c0.07,0,0.14,0,0.22-0.01c0.15-0.01,0.29-0.02,0.38,0.04
		C32.98,38.95,33.01,39.31,32.92,39.41z M33.26,37.4c-0.07,0.1,0.01,0.29-0.02,0.43c-0.03,0.16-0.08,0.32-0.15,0.48
		c-0.01,0.02-0.2,0-0.21-0.03c-0.06-0.17-0.11-0.36-0.11-0.53c0-0.16,0.08-0.32,0.06-0.5c-0.22,0.24-0.43,0.49-0.66,0.71
		c-0.1,0.1-0.26,0.18-0.39,0.18c-0.13,0-0.3-0.09-0.37-0.19c-0.05-0.07,0.01-0.29,0.09-0.35c1.87-1.35,3.79-1.71,5.87-0.29
		c0.15,0.1,0.27,0.25,0.4,0.38c-0.02,0.05-0.04,0.11-0.07,0.16c-0.33-0.07-0.66-0.11-0.97-0.21c-0.51-0.15-0.99-0.39-1.51-0.51
		c-0.47-0.1-0.6,0.13-0.72,0.6c-0.07,0.31-0.36,0.58-0.56,0.86c-0.08-0.04-0.16-0.07-0.24-0.11c0.04-0.19,0.07-0.39,0.12-0.58
		c0.04-0.17,0.16-0.34,0.14-0.5c-0.01-0.11-0.21-0.29-0.31-0.28C33.52,37.15,33.34,37.27,33.26,37.4z M34.23,39.73
		c-0.15,0.14-0.4,0.18-0.61,0.22c-0.03,0.01-0.19-0.32-0.14-0.36c0.62-0.7,1.24-1.4,1.91-2.05c0.26-0.25,0.61-0.11,0.95,0.2
		c-0.25,0.19-0.46,0.33-0.64,0.51C35.2,38.74,34.74,39.26,34.23,39.73z M38.13,40.2c-0.02,0.12-0.3,0.25-0.46,0.26
		c-0.27,0.01-0.54-0.07-0.82-0.11c-0.01,0.02-0.25-0.06-0.26-0.04c-0.54-0.24-0.86-0.37-1.4-0.62c-0.22-0.1-0.33-0.27-0.14-0.5
		c0.15-0.19,0.31-0.34,0.56-0.13c0.6,0.51,1.31,0.68,2.08,0.69C38,39.76,38.18,39.94,38.13,40.2z"/>
	<path class="st10" d="M23.37,34.81c-0.52,0.12-0.83,0.1-1.35,0.25c-0.09,0.03-0.22,0.26-0.22,0.32c0,0.01,0,0.01,0,0.01l0,0
		c0,0,0.01,0.01,0.01,0.01c0,0,0,0,0,0c0,0,0,0,0,0c0.01,0.01,0.02,0.03,0.04,0.04c0,0,0,0,0,0c0.1,0.12,0.25,0.25,0.35,0.25
		c0,0,0,0,0,0c0,0,0,0,0,0c0.01,0,0.02,0,0.02,0l0,0l0,0c0.01,0,0.01,0,0.02-0.01c0,0,0,0,0,0c0.33-0.09,0.66-0.17,0.98-0.17
		c0,0,0,0,0,0l0,0l0,0c0,0,0,0,0,0c0.32,0,0.64,0.07,0.96,0.27c0,0,0,0,0,0l0,0c0.01,0.01,0.03,0.01,0.04,0.01c0,0,0,0,0,0
		c0.01,0,0.01,0,0.02,0c0,0,0,0,0,0c0.11-0.02,0.28-0.14,0.41-0.2c0,0,0.01,0,0.01,0c0,0,0,0,0,0c0,0,0,0,0,0l0,0
		c-0.07-0.14-0.11-0.35-0.23-0.42c-0.25-0.17-0.55-0.27-0.82-0.4C23.63,34.76,23.39,34.84,23.37,34.81"/>
	<path class="st10" d="M32.05,34.81C32.05,34.81,32.05,34.81,32.05,34.81C32.05,34.81,32.05,34.81,32.05,34.81
		C32.05,34.81,32.05,34.81,32.05,34.81C32.05,34.81,32.05,34.81,32.05,34.81C32.05,34.81,32.04,34.81,32.05,34.81
		C32.04,34.81,32.04,34.81,32.05,34.81c-0.01,0-0.01,0-0.01,0l0,0c-0.14,0-0.28,0.2-0.41,0.31c0.14,0.15,0.27,0.31,0.41,0.46
		c0,0.01,0,0.01,0,0.02c0.01,0.92-1.19,1.72-2.25,1.72c0,0,0,0,0,0l0,0l0,0c0,0,0,0,0,0c-0.24,0-0.47-0.04-0.68-0.13c0,0,0,0,0,0
		c0,0,0,0-0.01,0c0,0,0,0-0.01,0l0,0c0,0,0,0,0,0c0,0,0,0,0,0c-0.05-0.02-0.11-0.03-0.17-0.03c0,0,0,0,0,0c0,0,0,0,0,0
		c-0.06,0-0.13,0.01-0.2,0.02c-0.06,0.01-0.13,0.02-0.19,0.02l0,0c0.11,0.17,0.17,0.41,0.33,0.49c0.29,0.16,0.59,0.23,0.88,0.23
		c0,0,0,0,0,0c0,0,0,0,0,0c0.46,0,0.91-0.18,1.34-0.42c0,0,0,0,0.01,0c0.8-0.47,1.39-1.13,1.43-2.12l0,0c0,0,0-0.01,0-0.01
		C32.52,35.06,32.37,34.81,32.05,34.81C32.05,34.81,32.05,34.81,32.05,34.81"/>
	<path class="st10" d="M21.49,37.63C21.49,37.63,21.49,37.63,21.49,37.63c-0.3,0-0.4,0.15-0.43,0.56c0,0,0,0.01,0,0.01c0,0,0,0,0,0
		c-0.01,0.16-0.01,0.33-0.02,0.49c0,0.02,0,0.05,0,0.07c0,0.31,0.16,0.46,0.49,0.54c0.59,0.13,1.17,0.28,1.74,0.47c0,0,0,0,0.01,0
		c0,0,0.01,0,0.01,0.01c0,0,0.01,0,0.01,0.01c0.03,0.01,0.06,0.02,0.1,0.03c0,0,0,0,0,0c0,0,0.01,0,0.01,0c0,0,0.01,0,0.01,0
		c0.01,0,0.03,0.01,0.04,0.01c0.34,0.11,0.57,0.19,0.73,0.19c0,0,0.01,0,0.01,0c0,0,0,0,0,0c0.32,0,0.35-0.29,0.45-1.08
		c0,0,0-0.01,0-0.01c0-0.01,0-0.03,0-0.04l0,0c0-0.04,0.01-0.08,0.01-0.12c0-0.25-0.12-0.39-0.36-0.47
		c-0.52-0.17-0.83-0.23-1.35-0.4c-0.01,0.02-0.23-0.08-0.24-0.06c-0.29-0.06-0.57-0.12-0.86-0.18c-0.03-0.01-0.06-0.01-0.1-0.02l0,0
		C21.64,37.63,21.56,37.63,21.49,37.63C21.49,37.63,21.49,37.63,21.49,37.63"/>
	<path class="st10" d="M34.7,39.68c-0.08,0.08-0.21,0.17-0.29,0.29c-0.35,0.5-0.62,1.02-0.84,1.55l0.73-0.05
		c0.17-0.4,0.39-0.78,0.65-1.15c0.08-0.11,0.11-0.19,0.11-0.27C35.06,39.9,34.93,39.79,34.7,39.68"/>
	<path class="st10" d="M23.04,36.39c-0.44-0.23-0.94-0.37-1.32-0.67c-0.32-0.26-0.5-0.61-0.5-1c0-0.16,0.03-0.33,0.09-0.5
		c0.07-0.2,0.29-0.35,0.4-0.54c0.03-0.06,0.04-0.13,0.04-0.21c0-0.02,0-0.04,0-0.05c0-0.03,0-0.06,0-0.09c0,0-0.01,0-0.01,0
		c-0.03,0-0.06,0-0.09,0c0,0,0,0,0,0c0,0,0,0,0,0c-0.01,0-0.01,0-0.02,0c-0.01,0-0.01,0-0.02,0c-0.01,0-0.01,0-0.02,0
		c-0.01,0-0.01,0-0.02,0c0,0,0,0,0,0c0,0,0,0,0,0c-0.04,0-0.08,0-0.12,0.01c-0.04,0.01-0.07,0.02-0.09,0.03c0,0,0,0,0,0c0,0,0,0,0,0
		c0,0,0,0,0,0c-0.13,0.11-0.19,0.29-0.28,0.45c-0.08,0.14-0.16,0.28-0.24,0.42c-0.07-0.1-0.09-0.18-0.09-0.24
		c0-0.03,0-0.05,0.01-0.08c0.05-0.19,0.07-0.37,0.07-0.55c0-0.47-0.14-0.91-0.39-1.32c-0.13-0.22-0.42-0.4-0.68-0.48
		c-0.01,0-0.03-0.01-0.04-0.01c0,0,0,0,0,0c0,0-0.01,0-0.01,0c-0.02,0-0.03,0-0.05,0.01c-0.12,0.03-0.28,0.15-0.39,0.25c0,0,0,0,0,0
		c0,0,0,0,0,0c0,0,0,0,0,0c0,0,0,0,0,0c0,0,0,0-0.01,0.01c-0.01,0.01-0.01,0.01-0.01,0.03c0,0.07,0.08,0.23,0.12,0.34
		c0.16-0.06,0.33-0.12,0.49-0.18c0.03-0.01,0.06-0.01,0.12-0.02c0.49,0.34,0.38,0.91,0.5,1.39c0.18,0.75,0.3,1.53,0.6,2.23
		c0,0,0,0,0,0.01c0.31,0.72,1.21,1.21,1.96,1.21c0,0,0,0,0,0c0,0,0,0,0,0c0.18,0,0.36-0.03,0.51-0.1c0,0,0.01,0,0.01,0
		C23.35,36.61,23.2,36.48,23.04,36.39z"/>
	<path class="st10" d="M19.08,36.88C19.08,36.88,19.08,36.88,19.08,36.88c-0.59,0-1.14,0.16-1.23,0.42c0,0,0,0,0,0l0,0
		c0,0,0,0,0.01,0c0,0,0.01,0,0.01,0c0.15-0.03,0.29-0.04,0.44-0.04c0.01,0,0.02,0,0.04,0h0h0c0.02,0,0.05,0,0.07,0
		c0.04,0,0.09,0,0.13,0c0.05,0,0.09,0,0.14,0.01l0,0l0,0c0.01,0,0.02,0,0.03,0c0,0,0,0,0,0c0.01,0,0.02,0,0.04,0
		c0.08,0,0.15,0.01,0.22,0.01c0.02,0,0.03,0,0.05,0c0.01,0,0.03,0,0.04,0c0.32,0,0.63-0.05,0.92-0.23c0,0,0,0,0,0
		c0.01,0,0.01-0.01,0.02-0.01l0,0c0,0-0.01,0-0.01,0C19.73,36.93,19.4,36.88,19.08,36.88C19.08,36.88,19.08,36.88,19.08,36.88"/>
	<path class="st10" d="M23.56,35.91c-0.02,0.09-0.02,0.18-0.02,0.27c0,0.65,0.42,1.17,1.01,1.21c0-0.01,0-0.03,0-0.04
		C24.55,36.59,24.13,35.97,23.56,35.91"/>
</g>
</svg>
